<mxfile host="drawio-plugin" modified="2023-06-21T02:12:29.068Z" agent="5.0 (Windows NT 6.2; Win64; x64) AppleWebKit/537.36 (KHTML, like Gecko) Chrome/104.0.5112.102 Safari/537.36" etag="sxAjE7QXimIeF2AgHAMh" version="20.5.3" type="embed"><diagram id="POm2k2JT35av5bbzbWTk" name="Conceitual"><mxGraphModel dx="1774" dy="748" grid="0" gridSize="10" guides="1" tooltips="1" connect="1" arrows="1" fold="1" page="0" pageScale="1" pageWidth="1920" pageHeight="1200" background="#ffffff" math="0" shadow="0"><root><mxCell id="0"/><mxCell id="1" parent="0"/><mxCell id="nWpIoVkVnjWbzlzGKt3M-1" value="Pessoa" style="swimlane;fontStyle=1;childLayout=stackLayout;horizontal=1;startSize=30;horizontalStack=0;resizeParent=1;resizeParentMax=0;resizeLast=0;collapsible=1;marginBottom=0;fillColor=#F5AB50;strokeColor=#909090;fontColor=#1A1A1A;rounded=0;fontSize=13;labelBackgroundColor=none;" parent="1" vertex="1"><mxGeometry x="10" y="294" width="200" height="660" as="geometry"/></mxCell><mxCell id="nWpIoVkVnjWbzlzGKt3M-2" value="pessoa_id" style="text;strokeColor=#909090;fillColor=none;align=left;verticalAlign=middle;spacingLeft=4;spacingRight=4;overflow=hidden;points=[[0,0.5],[1,0.5]];portConstraint=eastwest;rotatable=0;fontColor=#1A1A1A;rounded=0;shadow=0;glass=0;fontStyle=1;labelBackgroundColor=none;" parent="nWpIoVkVnjWbzlzGKt3M-1" vertex="1"><mxGeometry y="30" width="200" height="30" as="geometry"/></mxCell><mxCell id="nWpIoVkVnjWbzlzGKt3M-15" value="CPF" style="text;strokeColor=#909090;fillColor=none;align=left;verticalAlign=middle;spacingLeft=4;spacingRight=4;overflow=hidden;points=[[0,0.5],[1,0.5]];portConstraint=eastwest;rotatable=0;fontColor=#1A1A1A;rounded=0;labelBackgroundColor=none;fontStyle=1" parent="nWpIoVkVnjWbzlzGKt3M-1" vertex="1"><mxGeometry y="60" width="200" height="30" as="geometry"/></mxCell><mxCell id="nWpIoVkVnjWbzlzGKt3M-16" value="RG" style="text;strokeColor=#909090;fillColor=none;align=left;verticalAlign=middle;spacingLeft=4;spacingRight=4;overflow=hidden;points=[[0,0.5],[1,0.5]];portConstraint=eastwest;rotatable=0;fontColor=#1A1A1A;rounded=0;labelBackgroundColor=none;fontStyle=1" parent="nWpIoVkVnjWbzlzGKt3M-1" vertex="1"><mxGeometry y="90" width="200" height="30" as="geometry"/></mxCell><mxCell id="nWpIoVkVnjWbzlzGKt3M-3" value="nomeCompleto" style="text;strokeColor=#909090;fillColor=#F5AB50;align=left;verticalAlign=middle;spacingLeft=4;spacingRight=4;overflow=hidden;points=[[0,0.5],[1,0.5]];portConstraint=eastwest;rotatable=0;rounded=0;labelBackgroundColor=none;fontColor=#1A1A1A;" parent="nWpIoVkVnjWbzlzGKt3M-1" vertex="1"><mxGeometry y="120" width="200" height="30" as="geometry"/></mxCell><mxCell id="SZJAraMizJXhkspYtvWd-16" value="genero" style="text;strokeColor=#909090;fillColor=none;align=left;verticalAlign=middle;spacingLeft=4;spacingRight=4;overflow=hidden;points=[[0,0.5],[1,0.5]];portConstraint=eastwest;rotatable=0;fontColor=#1A1A1A;rounded=0;labelBackgroundColor=none;" parent="nWpIoVkVnjWbzlzGKt3M-1" vertex="1"><mxGeometry y="150" width="200" height="30" as="geometry"/></mxCell><mxCell id="nWpIoVkVnjWbzlzGKt3M-6" value="Data_Nascimento" style="text;strokeColor=#909090;fillColor=none;align=left;verticalAlign=middle;spacingLeft=4;spacingRight=4;overflow=hidden;points=[[0,0.5],[1,0.5]];portConstraint=eastwest;rotatable=0;fontColor=#1A1A1A;rounded=0;labelBackgroundColor=none;" parent="nWpIoVkVnjWbzlzGKt3M-1" vertex="1"><mxGeometry y="180" width="200" height="30" as="geometry"/></mxCell><mxCell id="nWpIoVkVnjWbzlzGKt3M-9" value="Email" style="text;strokeColor=#909090;fillColor=none;align=left;verticalAlign=middle;spacingLeft=4;spacingRight=4;overflow=hidden;points=[[0,0.5],[1,0.5]];portConstraint=eastwest;rotatable=0;fontColor=#1A1A1A;rounded=0;labelBackgroundColor=none;" parent="nWpIoVkVnjWbzlzGKt3M-1" vertex="1"><mxGeometry y="210" width="200" height="30" as="geometry"/></mxCell><mxCell id="nWpIoVkVnjWbzlzGKt3M-17" value="CEP" style="text;strokeColor=#909090;fillColor=none;align=left;verticalAlign=middle;spacingLeft=4;spacingRight=4;overflow=hidden;points=[[0,0.5],[1,0.5]];portConstraint=eastwest;rotatable=0;fontColor=#1A1A1A;rounded=0;labelBackgroundColor=none;" parent="nWpIoVkVnjWbzlzGKt3M-1" vertex="1"><mxGeometry y="240" width="200" height="30" as="geometry"/></mxCell><mxCell id="nWpIoVkVnjWbzlzGKt3M-7" value="Tele_Celular" style="text;strokeColor=#909090;fillColor=none;align=left;verticalAlign=middle;spacingLeft=4;spacingRight=4;overflow=hidden;points=[[0,0.5],[1,0.5]];portConstraint=eastwest;rotatable=0;fontColor=#1A1A1A;rounded=0;labelBackgroundColor=none;" parent="nWpIoVkVnjWbzlzGKt3M-1" vertex="1"><mxGeometry y="270" width="200" height="30" as="geometry"/></mxCell><mxCell id="nWpIoVkVnjWbzlzGKt3M-8" value="Tele_Fixo" style="text;strokeColor=#909090;fillColor=none;align=left;verticalAlign=middle;spacingLeft=4;spacingRight=4;overflow=hidden;points=[[0,0.5],[1,0.5]];portConstraint=eastwest;rotatable=0;fontColor=#1A1A1A;rounded=0;labelBackgroundColor=none;" parent="nWpIoVkVnjWbzlzGKt3M-1" vertex="1"><mxGeometry y="300" width="200" height="30" as="geometry"/></mxCell><mxCell id="SZJAraMizJXhkspYtvWd-6" value="endereco" style="text;strokeColor=#909090;fillColor=#F5AB50;align=left;verticalAlign=middle;spacingLeft=4;spacingRight=4;overflow=hidden;points=[[0,0.5],[1,0.5]];portConstraint=eastwest;rotatable=0;rounded=0;labelBackgroundColor=none;fontColor=#1A1A1A;" parent="nWpIoVkVnjWbzlzGKt3M-1" vertex="1"><mxGeometry y="330" width="200" height="30" as="geometry"/></mxCell><mxCell id="nWpIoVkVnjWbzlzGKt3M-11" value="Estado_Natal" style="text;strokeColor=#909090;fillColor=none;align=left;verticalAlign=middle;spacingLeft=4;spacingRight=4;overflow=hidden;points=[[0,0.5],[1,0.5]];portConstraint=eastwest;rotatable=0;fontColor=#1A1A1A;rounded=0;labelBackgroundColor=none;" parent="nWpIoVkVnjWbzlzGKt3M-1" vertex="1"><mxGeometry y="360" width="200" height="30" as="geometry"/></mxCell><mxCell id="nWpIoVkVnjWbzlzGKt3M-10" value="Cidade_Natal" style="text;strokeColor=#909090;fillColor=none;align=left;verticalAlign=middle;spacingLeft=4;spacingRight=4;overflow=hidden;points=[[0,0.5],[1,0.5]];portConstraint=eastwest;rotatable=0;fontColor=#1A1A1A;rounded=0;labelBackgroundColor=none;" parent="nWpIoVkVnjWbzlzGKt3M-1" vertex="1"><mxGeometry y="390" width="200" height="30" as="geometry"/></mxCell><mxCell id="nWpIoVkVnjWbzlzGKt3M-12" value="Cidade_MorandoAtual" style="text;strokeColor=#909090;fillColor=none;align=left;verticalAlign=middle;spacingLeft=4;spacingRight=4;overflow=hidden;points=[[0,0.5],[1,0.5]];portConstraint=eastwest;rotatable=0;fontColor=#1A1A1A;rounded=0;labelBackgroundColor=none;" parent="nWpIoVkVnjWbzlzGKt3M-1" vertex="1"><mxGeometry y="420" width="200" height="30" as="geometry"/></mxCell><mxCell id="nWpIoVkVnjWbzlzGKt3M-13" value="Estado_MorandoAtual" style="text;strokeColor=#909090;fillColor=none;align=left;verticalAlign=middle;spacingLeft=4;spacingRight=4;overflow=hidden;points=[[0,0.5],[1,0.5]];portConstraint=eastwest;rotatable=0;fontColor=#1A1A1A;rounded=0;labelBackgroundColor=none;" parent="nWpIoVkVnjWbzlzGKt3M-1" vertex="1"><mxGeometry y="450" width="200" height="30" as="geometry"/></mxCell><mxCell id="nWpIoVkVnjWbzlzGKt3M-14" value="Estrangeiro_a" style="text;strokeColor=#909090;fillColor=none;align=left;verticalAlign=middle;spacingLeft=4;spacingRight=4;overflow=hidden;points=[[0,0.5],[1,0.5]];portConstraint=eastwest;rotatable=0;fontColor=#1A1A1A;rounded=0;labelBackgroundColor=none;" parent="nWpIoVkVnjWbzlzGKt3M-1" vertex="1"><mxGeometry y="480" width="200" height="30" as="geometry"/></mxCell><mxCell id="nWpIoVkVnjWbzlzGKt3M-36" value="Serie" style="text;strokeColor=#909090;fillColor=#F5AB50;align=left;verticalAlign=middle;spacingLeft=4;spacingRight=4;overflow=hidden;points=[[0,0.5],[1,0.5]];portConstraint=eastwest;rotatable=0;rounded=0;labelBackgroundColor=none;fontColor=#1A1A1A;fillStyle=solid;" parent="nWpIoVkVnjWbzlzGKt3M-1" vertex="1"><mxGeometry y="510" width="200" height="30" as="geometry"/></mxCell><mxCell id="nWpIoVkVnjWbzlzGKt3M-35" value="EscolaridadeAtual" style="text;strokeColor=#909090;fillColor=#F5AB50;align=left;verticalAlign=middle;spacingLeft=4;spacingRight=4;overflow=hidden;points=[[0,0.5],[1,0.5]];portConstraint=eastwest;rotatable=0;rounded=0;labelBackgroundColor=none;fontColor=#1A1A1A;fillStyle=solid;" parent="nWpIoVkVnjWbzlzGKt3M-1" vertex="1"><mxGeometry y="540" width="200" height="30" as="geometry"/></mxCell><mxCell id="nWpIoVkVnjWbzlzGKt3M-37" value="Profissao" style="text;strokeColor=#909090;fillColor=none;align=left;verticalAlign=middle;spacingLeft=4;spacingRight=4;overflow=hidden;points=[[0,0.5],[1,0.5]];portConstraint=eastwest;rotatable=0;fontColor=#1A1A1A;rounded=0;labelBackgroundColor=none;" parent="nWpIoVkVnjWbzlzGKt3M-1" vertex="1"><mxGeometry y="570" width="200" height="30" as="geometry"/></mxCell><mxCell id="nWpIoVkVnjWbzlzGKt3M-38" value="Orgao_Instituicao_etc" style="text;strokeColor=#909090;fillColor=none;align=left;verticalAlign=middle;spacingLeft=4;spacingRight=4;overflow=hidden;points=[[0,0.5],[1,0.5]];portConstraint=eastwest;rotatable=0;fontColor=#1A1A1A;rounded=0;labelBackgroundColor=none;" parent="nWpIoVkVnjWbzlzGKt3M-1" vertex="1"><mxGeometry y="600" width="200" height="30" as="geometry"/></mxCell><mxCell id="nWpIoVkVnjWbzlzGKt3M-39" value="Outros" style="text;strokeColor=#909090;fillColor=none;align=left;verticalAlign=middle;spacingLeft=4;spacingRight=4;overflow=hidden;points=[[0,0.5],[1,0.5]];portConstraint=eastwest;rotatable=0;fontColor=#1A1A1A;rounded=0;labelBackgroundColor=none;" parent="nWpIoVkVnjWbzlzGKt3M-1" vertex="1"><mxGeometry y="630" width="200" height="30" as="geometry"/></mxCell><mxCell id="0fIxhT4gbRl_YkppA31t-1" value="Contrato" style="swimlane;fontStyle=1;childLayout=stackLayout;horizontal=1;startSize=30;horizontalStack=0;resizeParent=1;resizeParentMax=0;resizeLast=0;collapsible=1;marginBottom=0;fillColor=#F5AB50;strokeColor=#909090;fontColor=#1A1A1A;rounded=0;fontSize=13;labelBackgroundColor=none;" parent="1" vertex="1"><mxGeometry x="685" y="870" width="240" height="300" as="geometry"/></mxCell><mxCell id="0fIxhT4gbRl_YkppA31t-2" value="ID_NumeroContrato" style="text;strokeColor=#909090;fillColor=none;align=left;verticalAlign=middle;spacingLeft=4;spacingRight=4;overflow=hidden;points=[[0,0.5],[1,0.5]];portConstraint=eastwest;rotatable=0;fontColor=#1A1A1A;rounded=0;shadow=0;glass=0;fontStyle=1;labelBackgroundColor=none;" parent="0fIxhT4gbRl_YkppA31t-1" vertex="1"><mxGeometry y="30" width="240" height="30" as="geometry"/></mxCell><mxCell id="0fIxhT4gbRl_YkppA31t-4" value="situacaoContrato" style="text;strokeColor=#909090;fillColor=none;align=left;verticalAlign=middle;spacingLeft=4;spacingRight=4;overflow=hidden;points=[[0,0.5],[1,0.5]];portConstraint=eastwest;rotatable=0;fontColor=#1A1A1A;rounded=0;labelBackgroundColor=none;" parent="0fIxhT4gbRl_YkppA31t-1" vertex="1"><mxGeometry y="60" width="240" height="30" as="geometry"/></mxCell><mxCell id="0fIxhT4gbRl_YkppA31t-5" value="tipoContrato_MatriculaRematricula" style="text;strokeColor=#909090;fillColor=none;align=left;verticalAlign=middle;spacingLeft=4;spacingRight=4;overflow=hidden;points=[[0,0.5],[1,0.5]];portConstraint=eastwest;rotatable=0;fontColor=#1A1A1A;rounded=0;labelBackgroundColor=none;" parent="0fIxhT4gbRl_YkppA31t-1" vertex="1"><mxGeometry y="90" width="240" height="30" as="geometry"/></mxCell><mxCell id="IpD030YQNXmr0TUx2zoF-5" value="contratante" style="text;strokeColor=#909090;fillColor=none;align=left;verticalAlign=middle;spacingLeft=4;spacingRight=4;overflow=hidden;points=[[0,0.5],[1,0.5]];portConstraint=eastwest;rotatable=0;fontColor=#1A1A1A;rounded=0;labelBackgroundColor=none;" parent="0fIxhT4gbRl_YkppA31t-1" vertex="1"><mxGeometry y="120" width="240" height="30" as="geometry"/></mxCell><mxCell id="0fIxhT4gbRl_YkppA31t-6" value="modalidade" style="text;strokeColor=#909090;fillColor=#F5AB50;align=left;verticalAlign=middle;spacingLeft=4;spacingRight=4;overflow=hidden;points=[[0,0.5],[1,0.5]];portConstraint=eastwest;rotatable=0;rounded=0;labelBackgroundColor=none;fontColor=#1A1A1A;fillStyle=solid;" parent="0fIxhT4gbRl_YkppA31t-1" vertex="1"><mxGeometry y="150" width="240" height="30" as="geometry"/></mxCell><mxCell id="0fIxhT4gbRl_YkppA31t-7" value="dataInicio" style="text;strokeColor=#909090;fillColor=none;align=left;verticalAlign=middle;spacingLeft=4;spacingRight=4;overflow=hidden;points=[[0,0.5],[1,0.5]];portConstraint=eastwest;rotatable=0;fontColor=#1A1A1A;rounded=0;labelBackgroundColor=none;" parent="0fIxhT4gbRl_YkppA31t-1" vertex="1"><mxGeometry y="180" width="240" height="30" as="geometry"/></mxCell><mxCell id="0fIxhT4gbRl_YkppA31t-9" value="dataTermino" style="text;strokeColor=#909090;fillColor=none;align=left;verticalAlign=middle;spacingLeft=4;spacingRight=4;overflow=hidden;points=[[0,0.5],[1,0.5]];portConstraint=eastwest;rotatable=0;fontColor=#1A1A1A;rounded=0;labelBackgroundColor=none;" parent="0fIxhT4gbRl_YkppA31t-1" vertex="1"><mxGeometry y="210" width="240" height="30" as="geometry"/></mxCell><mxCell id="0fIxhT4gbRl_YkppA31t-3" value="numeroContrato" style="text;strokeColor=#909090;fillColor=none;align=left;verticalAlign=middle;spacingLeft=4;spacingRight=4;overflow=hidden;points=[[0,0.5],[1,0.5]];portConstraint=eastwest;rotatable=0;fontColor=#1A1A1A;rounded=0;labelBackgroundColor=none;" parent="0fIxhT4gbRl_YkppA31t-1" vertex="1"><mxGeometry y="240" width="240" height="30" as="geometry"/></mxCell><mxCell id="SZJAraMizJXhkspYtvWd-105" value="matricula" style="text;strokeColor=#909090;fillColor=#F5AB50;align=left;verticalAlign=middle;spacingLeft=4;spacingRight=4;overflow=hidden;points=[[0,0.5],[1,0.5]];portConstraint=eastwest;rotatable=0;rounded=0;labelBackgroundColor=none;fontColor=#1A1A1A;" parent="0fIxhT4gbRl_YkppA31t-1" vertex="1"><mxGeometry y="270" width="240" height="30" as="geometry"/></mxCell><mxCell id="JquZR43pOfXvCcVMopme-9" value="CursoSerie" style="swimlane;fontStyle=1;childLayout=stackLayout;horizontal=1;startSize=30;horizontalStack=0;resizeParent=1;resizeParentMax=0;resizeLast=0;collapsible=1;marginBottom=0;fillColor=#F5AB50;strokeColor=#909090;fontColor=#1A1A1A;rounded=0;fontSize=13;labelBackgroundColor=none;" parent="1" vertex="1"><mxGeometry x="1680" y="980" width="160" height="150" as="geometry"/></mxCell><mxCell id="JquZR43pOfXvCcVMopme-10" value="ID_CursoSerie" style="text;strokeColor=#909090;fillColor=none;align=left;verticalAlign=middle;spacingLeft=4;spacingRight=4;overflow=hidden;points=[[0,0.5],[1,0.5]];portConstraint=eastwest;rotatable=0;fontColor=#1A1A1A;rounded=0;shadow=0;glass=0;fontStyle=1;labelBackgroundColor=none;" parent="JquZR43pOfXvCcVMopme-9" vertex="1"><mxGeometry y="30" width="160" height="30" as="geometry"/></mxCell><mxCell id="JquZR43pOfXvCcVMopme-11" value="nome" style="text;strokeColor=#909090;fillColor=#F5AB50;align=left;verticalAlign=middle;spacingLeft=4;spacingRight=4;overflow=hidden;points=[[0,0.5],[1,0.5]];portConstraint=eastwest;rotatable=0;rounded=0;labelBackgroundColor=none;fontColor=#1A1A1A;fillStyle=solid;" parent="JquZR43pOfXvCcVMopme-9" vertex="1"><mxGeometry y="60" width="160" height="30" as="geometry"/></mxCell><mxCell id="JquZR43pOfXvCcVMopme-13" value="categoria" style="text;strokeColor=#909090;fillColor=#F5AB50;align=left;verticalAlign=middle;spacingLeft=4;spacingRight=4;overflow=hidden;points=[[0,0.5],[1,0.5]];portConstraint=eastwest;rotatable=0;rounded=0;labelBackgroundColor=none;fontColor=#1A1A1A;fillStyle=solid;" parent="JquZR43pOfXvCcVMopme-9" vertex="1"><mxGeometry y="90" width="160" height="30" as="geometry"/></mxCell><mxCell id="K7bReG7VReP9OpcojC8x-9" value="estagios_livros" style="text;strokeColor=#909090;fillColor=#F5AB50;align=left;verticalAlign=middle;spacingLeft=4;spacingRight=4;overflow=hidden;points=[[0,0.5],[1,0.5]];portConstraint=eastwest;rotatable=0;rounded=0;labelBackgroundColor=none;fontColor=#1A1A1A;" parent="JquZR43pOfXvCcVMopme-9" vertex="1"><mxGeometry y="120" width="160" height="30" as="geometry"/></mxCell><mxCell id="1TT0_I5LyJGWJnFQ4JFd-1" value="Matricula" style="swimlane;fontStyle=1;childLayout=stackLayout;horizontal=1;startSize=30;horizontalStack=0;resizeParent=1;resizeParentMax=0;resizeLast=0;collapsible=1;marginBottom=0;fillColor=#F5AB50;strokeColor=#909090;fontColor=#1A1A1A;rounded=0;fontSize=13;labelBackgroundColor=none;" parent="1" vertex="1"><mxGeometry x="1330" y="1110" width="160" height="450" as="geometry"/></mxCell><mxCell id="1TT0_I5LyJGWJnFQ4JFd-2" value="ID_Matricula" style="text;strokeColor=#909090;fillColor=none;align=left;verticalAlign=middle;spacingLeft=4;spacingRight=4;overflow=hidden;points=[[0,0.5],[1,0.5]];portConstraint=eastwest;rotatable=0;fontColor=#1A1A1A;rounded=0;shadow=0;glass=0;fontStyle=1;labelBackgroundColor=none;" parent="1TT0_I5LyJGWJnFQ4JFd-1" vertex="1"><mxGeometry y="30" width="160" height="30" as="geometry"/></mxCell><mxCell id="1TT0_I5LyJGWJnFQ4JFd-3" value="atual" style="text;strokeColor=#909090;fillColor=none;align=left;verticalAlign=middle;spacingLeft=4;spacingRight=4;overflow=hidden;points=[[0,0.5],[1,0.5]];portConstraint=eastwest;rotatable=0;fontColor=#1A1A1A;rounded=0;labelBackgroundColor=none;" parent="1TT0_I5LyJGWJnFQ4JFd-1" vertex="1"><mxGeometry y="60" width="160" height="30" as="geometry"/></mxCell><mxCell id="SZJAraMizJXhkspYtvWd-67" value="cursoSerie" style="text;strokeColor=#909090;fillColor=#F5AB50;align=left;verticalAlign=middle;spacingLeft=4;spacingRight=4;overflow=hidden;points=[[0,0.5],[1,0.5]];portConstraint=eastwest;rotatable=0;rounded=0;labelBackgroundColor=none;fontColor=#1A1A1A;" parent="1TT0_I5LyJGWJnFQ4JFd-1" vertex="1"><mxGeometry y="90" width="160" height="30" as="geometry"/></mxCell><mxCell id="1TT0_I5LyJGWJnFQ4JFd-4" value="estagioLivro" style="text;strokeColor=#909090;fillColor=#F5AB50;align=left;verticalAlign=middle;spacingLeft=4;spacingRight=4;overflow=hidden;points=[[0,0.5],[1,0.5]];portConstraint=eastwest;rotatable=0;rounded=0;labelBackgroundColor=none;fontColor=#1A1A1A;" parent="1TT0_I5LyJGWJnFQ4JFd-1" vertex="1"><mxGeometry y="120" width="160" height="30" as="geometry"/></mxCell><mxCell id="SZJAraMizJXhkspYtvWd-68" value="planejamentoLicoes" style="text;strokeColor=#909090;fillColor=none;align=left;verticalAlign=middle;spacingLeft=4;spacingRight=4;overflow=hidden;points=[[0,0.5],[1,0.5]];portConstraint=eastwest;rotatable=0;fontColor=#1A1A1A;rounded=0;labelBackgroundColor=none;" parent="1TT0_I5LyJGWJnFQ4JFd-1" vertex="1"><mxGeometry y="150" width="160" height="30" as="geometry"/></mxCell><mxCell id="nWpIoVkVnjWbzlzGKt3M-43" value="Nivel_CERFL" style="text;strokeColor=#909090;fillColor=none;align=left;verticalAlign=middle;spacingLeft=4;spacingRight=4;overflow=hidden;points=[[0,0.5],[1,0.5]];portConstraint=eastwest;rotatable=0;fontColor=#1A1A1A;rounded=0;labelBackgroundColor=none;" parent="1TT0_I5LyJGWJnFQ4JFd-1" vertex="1"><mxGeometry y="180" width="160" height="30" as="geometry"/></mxCell><mxCell id="IpD030YQNXmr0TUx2zoF-7" value="estagioBaseadoEm" style="text;strokeColor=#909090;fillColor=none;align=left;verticalAlign=middle;spacingLeft=4;spacingRight=4;overflow=hidden;points=[[0,0.5],[1,0.5]];portConstraint=eastwest;rotatable=0;fontColor=#1A1A1A;rounded=0;labelBackgroundColor=none;" parent="1TT0_I5LyJGWJnFQ4JFd-1" vertex="1"><mxGeometry y="210" width="160" height="30" as="geometry"/></mxCell><mxCell id="1TT0_I5LyJGWJnFQ4JFd-6" value="inicioMatricula" style="text;strokeColor=#909090;fillColor=none;align=left;verticalAlign=middle;spacingLeft=4;spacingRight=4;overflow=hidden;points=[[0,0.5],[1,0.5]];portConstraint=eastwest;rotatable=0;fontColor=#1A1A1A;rounded=0;labelBackgroundColor=none;" parent="1TT0_I5LyJGWJnFQ4JFd-1" vertex="1"><mxGeometry y="240" width="160" height="30" as="geometry"/></mxCell><mxCell id="1TT0_I5LyJGWJnFQ4JFd-7" value="fimMatricula" style="text;strokeColor=#909090;fillColor=none;align=left;verticalAlign=middle;spacingLeft=4;spacingRight=4;overflow=hidden;points=[[0,0.5],[1,0.5]];portConstraint=eastwest;rotatable=0;fontColor=#1A1A1A;rounded=0;labelBackgroundColor=none;" parent="1TT0_I5LyJGWJnFQ4JFd-1" vertex="1"><mxGeometry y="270" width="160" height="30" as="geometry"/></mxCell><mxCell id="1TT0_I5LyJGWJnFQ4JFd-15" value="professor_a" style="text;strokeColor=#909090;fillColor=none;align=left;verticalAlign=middle;spacingLeft=4;spacingRight=4;overflow=hidden;points=[[0,0.5],[1,0.5]];portConstraint=eastwest;rotatable=0;fontColor=#1A1A1A;rounded=0;labelBackgroundColor=none;" parent="1TT0_I5LyJGWJnFQ4JFd-1" vertex="1"><mxGeometry y="300" width="160" height="30" as="geometry"/></mxCell><mxCell id="1TT0_I5LyJGWJnFQ4JFd-24" value="numHorasAulaLivro" style="text;strokeColor=#909090;fillColor=none;align=left;verticalAlign=middle;spacingLeft=4;spacingRight=4;overflow=hidden;points=[[0,0.5],[1,0.5]];portConstraint=eastwest;rotatable=0;fontColor=#1A1A1A;rounded=0;labelBackgroundColor=none;" parent="1TT0_I5LyJGWJnFQ4JFd-1" vertex="1"><mxGeometry y="330" width="160" height="30" as="geometry"/></mxCell><mxCell id="1TT0_I5LyJGWJnFQ4JFd-25" value="numHorasAula1Ano" style="text;strokeColor=#909090;fillColor=none;align=left;verticalAlign=middle;spacingLeft=4;spacingRight=4;overflow=hidden;points=[[0,0.5],[1,0.5]];portConstraint=eastwest;rotatable=0;fontColor=#1A1A1A;rounded=0;labelBackgroundColor=none;" parent="1TT0_I5LyJGWJnFQ4JFd-1" vertex="1"><mxGeometry y="360" width="160" height="30" as="geometry"/></mxCell><mxCell id="1TT0_I5LyJGWJnFQ4JFd-5" value="horario" style="text;strokeColor=#909090;fillColor=none;align=left;verticalAlign=middle;spacingLeft=4;spacingRight=4;overflow=hidden;points=[[0,0.5],[1,0.5]];portConstraint=eastwest;rotatable=0;fontColor=#1A1A1A;rounded=0;labelBackgroundColor=none;" parent="1TT0_I5LyJGWJnFQ4JFd-1" vertex="1"><mxGeometry y="390" width="160" height="30" as="geometry"/></mxCell><mxCell id="SZJAraMizJXhkspYtvWd-70" value="sala" style="text;strokeColor=#909090;fillColor=none;align=left;verticalAlign=middle;spacingLeft=4;spacingRight=4;overflow=hidden;points=[[0,0.5],[1,0.5]];portConstraint=eastwest;rotatable=0;fontColor=#1A1A1A;rounded=0;labelBackgroundColor=none;" parent="1TT0_I5LyJGWJnFQ4JFd-1" vertex="1"><mxGeometry y="420" width="160" height="30" as="geometry"/></mxCell><mxCell id="IjbWlySuSJRFnJmlUXuC-1" value="Funcionario" style="swimlane;fontStyle=1;childLayout=stackLayout;horizontal=1;startSize=30;horizontalStack=0;resizeParent=1;resizeParentMax=0;resizeLast=0;collapsible=1;marginBottom=0;fillColor=#F5AB50;strokeColor=#909090;fontColor=#1A1A1A;rounded=0;fontSize=13;labelBackgroundColor=none;" parent="1" vertex="1"><mxGeometry x="-480" y="370" width="160" height="90" as="geometry"/></mxCell><mxCell id="IjbWlySuSJRFnJmlUXuC-2" value="funcionario_id" style="text;strokeColor=#909090;fillColor=none;align=left;verticalAlign=middle;spacingLeft=4;spacingRight=4;overflow=hidden;points=[[0,0.5],[1,0.5]];portConstraint=eastwest;rotatable=0;fontColor=#1A1A1A;rounded=0;shadow=0;glass=0;fontStyle=1;labelBackgroundColor=none;" parent="IjbWlySuSJRFnJmlUXuC-1" vertex="1"><mxGeometry y="30" width="160" height="30" as="geometry"/></mxCell><mxCell id="IjbWlySuSJRFnJmlUXuC-5" value="funcao" style="text;strokeColor=#909090;fillColor=none;align=left;verticalAlign=middle;spacingLeft=4;spacingRight=4;overflow=hidden;points=[[0,0.5],[1,0.5]];portConstraint=eastwest;rotatable=0;fontColor=#1A1A1A;rounded=0;labelBackgroundColor=none;" parent="IjbWlySuSJRFnJmlUXuC-1" vertex="1"><mxGeometry y="60" width="160" height="30" as="geometry"/></mxCell><mxCell id="SZJAraMizJXhkspYtvWd-7" value="Endereco" style="swimlane;fontStyle=1;childLayout=stackLayout;horizontal=1;startSize=30;horizontalStack=0;resizeParent=1;resizeParentMax=0;resizeLast=0;collapsible=1;marginBottom=0;fillColor=#F5AB50;strokeColor=#909090;fontColor=#1A1A1A;rounded=0;fontSize=13;labelBackgroundColor=none;" parent="1" vertex="1"><mxGeometry x="-530" y="850" width="160" height="210" as="geometry"/></mxCell><mxCell id="SZJAraMizJXhkspYtvWd-8" value="ID_Endereco" style="text;strokeColor=#909090;fillColor=none;align=left;verticalAlign=middle;spacingLeft=4;spacingRight=4;overflow=hidden;points=[[0,0.5],[1,0.5]];portConstraint=eastwest;rotatable=0;fontColor=#1A1A1A;rounded=0;shadow=0;glass=0;fontStyle=1;labelBackgroundColor=none;" parent="SZJAraMizJXhkspYtvWd-7" vertex="1"><mxGeometry y="30" width="160" height="30" as="geometry"/></mxCell><mxCell id="SZJAraMizJXhkspYtvWd-9" value="tipo (rua/avenida)" style="text;strokeColor=#909090;fillColor=none;align=left;verticalAlign=middle;spacingLeft=4;spacingRight=4;overflow=hidden;points=[[0,0.5],[1,0.5]];portConstraint=eastwest;rotatable=0;fontColor=#1A1A1A;rounded=0;labelBackgroundColor=none;" parent="SZJAraMizJXhkspYtvWd-7" vertex="1"><mxGeometry y="60" width="160" height="30" as="geometry"/></mxCell><mxCell id="SZJAraMizJXhkspYtvWd-10" value="nome" style="text;strokeColor=#909090;fillColor=none;align=left;verticalAlign=middle;spacingLeft=4;spacingRight=4;overflow=hidden;points=[[0,0.5],[1,0.5]];portConstraint=eastwest;rotatable=0;fontColor=#1A1A1A;rounded=0;labelBackgroundColor=none;" parent="SZJAraMizJXhkspYtvWd-7" vertex="1"><mxGeometry y="90" width="160" height="30" as="geometry"/></mxCell><mxCell id="SZJAraMizJXhkspYtvWd-11" value="numero" style="text;strokeColor=#909090;fillColor=none;align=left;verticalAlign=middle;spacingLeft=4;spacingRight=4;overflow=hidden;points=[[0,0.5],[1,0.5]];portConstraint=eastwest;rotatable=0;fontColor=#1A1A1A;rounded=0;labelBackgroundColor=none;" parent="SZJAraMizJXhkspYtvWd-7" vertex="1"><mxGeometry y="120" width="160" height="30" as="geometry"/></mxCell><mxCell id="SZJAraMizJXhkspYtvWd-12" value="complemento" style="text;strokeColor=#909090;fillColor=none;align=left;verticalAlign=middle;spacingLeft=4;spacingRight=4;overflow=hidden;points=[[0,0.5],[1,0.5]];portConstraint=eastwest;rotatable=0;fontColor=#1A1A1A;rounded=0;labelBackgroundColor=none;" parent="SZJAraMizJXhkspYtvWd-7" vertex="1"><mxGeometry y="150" width="160" height="30" as="geometry"/></mxCell><mxCell id="SZJAraMizJXhkspYtvWd-13" value="bairro" style="text;strokeColor=#909090;fillColor=none;align=left;verticalAlign=middle;spacingLeft=4;spacingRight=4;overflow=hidden;points=[[0,0.5],[1,0.5]];portConstraint=eastwest;rotatable=0;fontColor=#1A1A1A;rounded=0;labelBackgroundColor=none;" parent="SZJAraMizJXhkspYtvWd-7" vertex="1"><mxGeometry y="180" width="160" height="30" as="geometry"/></mxCell><mxCell id="SZJAraMizJXhkspYtvWd-25" style="edgeStyle=orthogonalEdgeStyle;rounded=0;orthogonalLoop=1;jettySize=auto;html=1;fontFamily=Helvetica;fontSize=12;fontColor=#1A1A1A;endArrow=none;endFill=0;labelBackgroundColor=none;strokeColor=#182E3E;" parent="1" source="SZJAraMizJXhkspYtvWd-6" target="SZJAraMizJXhkspYtvWd-7" edge="1"><mxGeometry relative="1" as="geometry"><Array as="points"><mxPoint x="-450" y="640"/></Array></mxGeometry></mxCell><mxCell id="hbxDveMCdLmUZHm9-9i--13" style="edgeStyle=orthogonalEdgeStyle;rounded=0;orthogonalLoop=1;jettySize=auto;html=1;fontSize=12;endArrow=classic;endFill=1;startSize=8;endSize=8;labelBackgroundColor=none;strokeColor=#182E3E;fontColor=#1A1A1A;" parent="1" source="SZJAraMizJXhkspYtvWd-35" target="nWpIoVkVnjWbzlzGKt3M-1" edge="1"><mxGeometry relative="1" as="geometry"/></mxCell><mxCell id="SZJAraMizJXhkspYtvWd-35" value="Cliente_Aluno" style="swimlane;fontStyle=1;childLayout=stackLayout;horizontal=1;startSize=30;horizontalStack=0;resizeParent=1;resizeParentMax=0;resizeLast=0;collapsible=1;marginBottom=0;fillColor=#F5AB50;strokeColor=#909090;fontColor=#1A1A1A;rounded=0;fontSize=13;labelBackgroundColor=none;" parent="1" vertex="1"><mxGeometry x="685" y="490" width="160" height="270" as="geometry"/></mxCell><mxCell id="SZJAraMizJXhkspYtvWd-36" value="ID_ClienteAluno" style="text;strokeColor=#909090;fillColor=none;align=left;verticalAlign=middle;spacingLeft=4;spacingRight=4;overflow=hidden;points=[[0,0.5],[1,0.5]];portConstraint=eastwest;rotatable=0;fontColor=#1A1A1A;rounded=0;shadow=0;glass=0;fontStyle=1;labelBackgroundColor=none;" parent="SZJAraMizJXhkspYtvWd-35" vertex="1"><mxGeometry y="30" width="160" height="30" as="geometry"/></mxCell><mxCell id="SZJAraMizJXhkspYtvWd-37" value="numero_matricula" style="text;strokeColor=#909090;fillColor=none;align=left;verticalAlign=middle;spacingLeft=4;spacingRight=4;overflow=hidden;points=[[0,0.5],[1,0.5]];portConstraint=eastwest;rotatable=0;fontColor=#1A1A1A;rounded=0;labelBackgroundColor=none;" parent="SZJAraMizJXhkspYtvWd-35" vertex="1"><mxGeometry y="60" width="160" height="30" as="geometry"/></mxCell><mxCell id="SZJAraMizJXhkspYtvWd-44" value="responsavel" style="text;strokeColor=#909090;fillColor=#F5AB50;align=left;verticalAlign=middle;spacingLeft=4;spacingRight=4;overflow=hidden;points=[[0,0.5],[1,0.5]];portConstraint=eastwest;rotatable=0;rounded=0;labelBackgroundColor=none;fontColor=#1A1A1A;" parent="SZJAraMizJXhkspYtvWd-35" vertex="1"><mxGeometry y="90" width="160" height="30" as="geometry"/></mxCell><mxCell id="nWpIoVkVnjWbzlzGKt3M-48" value="DeOutraUnidadeWizard" style="text;strokeColor=#909090;fillColor=none;align=left;verticalAlign=middle;spacingLeft=4;spacingRight=4;overflow=hidden;points=[[0,0.5],[1,0.5]];portConstraint=eastwest;rotatable=0;fontColor=#1A1A1A;rounded=0;labelBackgroundColor=none;" parent="SZJAraMizJXhkspYtvWd-35" vertex="1"><mxGeometry y="120" width="160" height="30" as="geometry"/></mxCell><mxCell id="nWpIoVkVnjWbzlzGKt3M-49" value="Unidade" style="text;strokeColor=#909090;fillColor=none;align=left;verticalAlign=middle;spacingLeft=4;spacingRight=4;overflow=hidden;points=[[0,0.5],[1,0.5]];portConstraint=eastwest;rotatable=0;fontColor=#1A1A1A;rounded=0;labelBackgroundColor=none;" parent="SZJAraMizJXhkspYtvWd-35" vertex="1"><mxGeometry y="150" width="160" height="30" as="geometry"/></mxCell><mxCell id="nWpIoVkVnjWbzlzGKt3M-46" value="Login" style="text;strokeColor=#909090;fillColor=none;align=left;verticalAlign=middle;spacingLeft=4;spacingRight=4;overflow=hidden;points=[[0,0.5],[1,0.5]];portConstraint=eastwest;rotatable=0;fontColor=#1A1A1A;rounded=0;labelBackgroundColor=none;" parent="SZJAraMizJXhkspYtvWd-35" vertex="1"><mxGeometry y="180" width="160" height="30" as="geometry"/></mxCell><mxCell id="nWpIoVkVnjWbzlzGKt3M-47" value="Senha" style="text;strokeColor=#909090;fillColor=none;align=left;verticalAlign=middle;spacingLeft=4;spacingRight=4;overflow=hidden;points=[[0,0.5],[1,0.5]];portConstraint=eastwest;rotatable=0;fontColor=#1A1A1A;rounded=0;labelBackgroundColor=none;" parent="SZJAraMizJXhkspYtvWd-35" vertex="1"><mxGeometry y="210" width="160" height="30" as="geometry"/></mxCell><mxCell id="SZJAraMizJXhkspYtvWd-103" value="contrato" style="text;strokeColor=#909090;fillColor=#F5AB50;align=left;verticalAlign=middle;spacingLeft=4;spacingRight=4;overflow=hidden;points=[[0,0.5],[1,0.5]];portConstraint=eastwest;rotatable=0;rounded=0;labelBackgroundColor=none;fontColor=#1A1A1A;" parent="SZJAraMizJXhkspYtvWd-35" vertex="1"><mxGeometry y="240" width="160" height="30" as="geometry"/></mxCell><mxCell id="SZJAraMizJXhkspYtvWd-45" value="Responsavel" style="swimlane;fontStyle=1;childLayout=stackLayout;horizontal=1;startSize=30;horizontalStack=0;resizeParent=1;resizeParentMax=0;resizeLast=0;collapsible=1;marginBottom=0;fillColor=#F5AB50;strokeColor=#909090;fontColor=#1A1A1A;rounded=0;fontSize=13;labelBackgroundColor=none;" parent="1" vertex="1"><mxGeometry x="970" y="490" width="160" height="90" as="geometry"/></mxCell><mxCell id="SZJAraMizJXhkspYtvWd-46" value="ID_Responsavel" style="text;strokeColor=#909090;fillColor=none;align=left;verticalAlign=middle;spacingLeft=4;spacingRight=4;overflow=hidden;points=[[0,0.5],[1,0.5]];portConstraint=eastwest;rotatable=0;fontColor=#1A1A1A;rounded=0;shadow=0;glass=0;fontStyle=1;labelBackgroundColor=none;" parent="SZJAraMizJXhkspYtvWd-45" vertex="1"><mxGeometry y="30" width="160" height="30" as="geometry"/></mxCell><mxCell id="SZJAraMizJXhkspYtvWd-47" value="parentesco_relacao" style="text;strokeColor=#909090;fillColor=none;align=left;verticalAlign=middle;spacingLeft=4;spacingRight=4;overflow=hidden;points=[[0,0.5],[1,0.5]];portConstraint=eastwest;rotatable=0;fontColor=#1A1A1A;rounded=0;labelBackgroundColor=none;" parent="SZJAraMizJXhkspYtvWd-45" vertex="1"><mxGeometry y="60" width="160" height="30" as="geometry"/></mxCell><mxCell id="SZJAraMizJXhkspYtvWd-54" style="edgeStyle=orthogonalEdgeStyle;rounded=0;orthogonalLoop=1;jettySize=auto;html=1;fontFamily=Helvetica;fontSize=12;fontColor=#1A1A1A;endArrow=classic;endFill=1;labelBackgroundColor=none;strokeColor=#182E3E;" parent="1" source="IjbWlySuSJRFnJmlUXuC-2" target="nWpIoVkVnjWbzlzGKt3M-1" edge="1"><mxGeometry relative="1" as="geometry"/></mxCell><mxCell id="SZJAraMizJXhkspYtvWd-55" style="edgeStyle=orthogonalEdgeStyle;rounded=0;orthogonalLoop=1;jettySize=auto;html=1;fontFamily=Helvetica;fontSize=12;fontColor=#1A1A1A;endArrow=classic;endFill=1;jumpSize=6;labelBackgroundColor=none;strokeColor=#182E3E;" parent="1" source="SZJAraMizJXhkspYtvWd-46" target="SZJAraMizJXhkspYtvWd-44" edge="1"><mxGeometry relative="1" as="geometry"/></mxCell><mxCell id="SZJAraMizJXhkspYtvWd-56" value="Turma" style="swimlane;fontStyle=1;childLayout=stackLayout;horizontal=1;startSize=30;horizontalStack=0;resizeParent=1;resizeParentMax=0;resizeLast=0;collapsible=1;marginBottom=0;fillColor=#F5AB50;strokeColor=#909090;fontColor=#1A1A1A;rounded=0;fontSize=13;labelBackgroundColor=none;" parent="1" vertex="1"><mxGeometry x="1520" y="410" width="190" height="330" as="geometry"/></mxCell><mxCell id="SZJAraMizJXhkspYtvWd-57" value="ID_Turma" style="text;strokeColor=#909090;fillColor=none;align=left;verticalAlign=middle;spacingLeft=4;spacingRight=4;overflow=hidden;points=[[0,0.5],[1,0.5]];portConstraint=eastwest;rotatable=0;fontColor=#1A1A1A;rounded=0;shadow=0;glass=0;fontStyle=1;labelBackgroundColor=none;" parent="SZJAraMizJXhkspYtvWd-56" vertex="1"><mxGeometry y="30" width="190" height="30" as="geometry"/></mxCell><mxCell id="SZJAraMizJXhkspYtvWd-58" value="turma_descricao" style="text;strokeColor=#909090;fillColor=none;align=left;verticalAlign=middle;spacingLeft=4;spacingRight=4;overflow=hidden;points=[[0,0.5],[1,0.5]];portConstraint=eastwest;rotatable=0;fontColor=#1A1A1A;rounded=0;labelBackgroundColor=none;" parent="SZJAraMizJXhkspYtvWd-56" vertex="1"><mxGeometry y="60" width="190" height="30" as="geometry"/></mxCell><mxCell id="SZJAraMizJXhkspYtvWd-59" value="cursoSerie" style="text;strokeColor=#909090;fillColor=#F5AB50;align=left;verticalAlign=middle;spacingLeft=4;spacingRight=4;overflow=hidden;points=[[0,0.5],[1,0.5]];portConstraint=eastwest;rotatable=0;fontColor=#1A1A1A;rounded=0;labelBackgroundColor=none;" parent="SZJAraMizJXhkspYtvWd-56" vertex="1"><mxGeometry y="90" width="190" height="30" as="geometry"/></mxCell><mxCell id="SZJAraMizJXhkspYtvWd-60" value="modalidade" style="text;strokeColor=#909090;fillColor=none;align=left;verticalAlign=middle;spacingLeft=4;spacingRight=4;overflow=hidden;points=[[0,0.5],[1,0.5]];portConstraint=eastwest;rotatable=0;fontColor=#1A1A1A;rounded=0;labelBackgroundColor=none;" parent="SZJAraMizJXhkspYtvWd-56" vertex="1"><mxGeometry y="120" width="190" height="30" as="geometry"/></mxCell><mxCell id="SZJAraMizJXhkspYtvWd-61" value="estagio" style="text;strokeColor=#909090;fillColor=#F5AB50;align=left;verticalAlign=middle;spacingLeft=4;spacingRight=4;overflow=hidden;points=[[0,0.5],[1,0.5]];portConstraint=eastwest;rotatable=0;fontColor=#1A1A1A;rounded=0;labelBackgroundColor=none;" parent="SZJAraMizJXhkspYtvWd-56" vertex="1"><mxGeometry y="150" width="190" height="30" as="geometry"/></mxCell><mxCell id="SZJAraMizJXhkspYtvWd-62" value="professor" style="text;strokeColor=#909090;fillColor=#F5AB50;align=left;verticalAlign=middle;spacingLeft=4;spacingRight=4;overflow=hidden;points=[[0,0.5],[1,0.5]];portConstraint=eastwest;rotatable=0;fontColor=#1A1A1A;rounded=0;labelBackgroundColor=none;" parent="SZJAraMizJXhkspYtvWd-56" vertex="1"><mxGeometry y="180" width="190" height="30" as="geometry"/></mxCell><mxCell id="SZJAraMizJXhkspYtvWd-63" value="sala" style="text;strokeColor=#909090;fillColor=none;align=left;verticalAlign=middle;spacingLeft=4;spacingRight=4;overflow=hidden;points=[[0,0.5],[1,0.5]];portConstraint=eastwest;rotatable=0;fontColor=#1A1A1A;rounded=0;labelBackgroundColor=none;" parent="SZJAraMizJXhkspYtvWd-56" vertex="1"><mxGeometry y="210" width="190" height="30" as="geometry"/></mxCell><mxCell id="SZJAraMizJXhkspYtvWd-64" value="data_inicio" style="text;strokeColor=#909090;fillColor=none;align=left;verticalAlign=middle;spacingLeft=4;spacingRight=4;overflow=hidden;points=[[0,0.5],[1,0.5]];portConstraint=eastwest;rotatable=0;fontColor=#1A1A1A;rounded=0;labelBackgroundColor=none;" parent="SZJAraMizJXhkspYtvWd-56" vertex="1"><mxGeometry y="240" width="190" height="30" as="geometry"/></mxCell><mxCell id="SZJAraMizJXhkspYtvWd-65" value="data_termino" style="text;strokeColor=#909090;fillColor=none;align=left;verticalAlign=middle;spacingLeft=4;spacingRight=4;overflow=hidden;points=[[0,0.5],[1,0.5]];portConstraint=eastwest;rotatable=0;fontColor=#1A1A1A;rounded=0;labelBackgroundColor=none;" parent="SZJAraMizJXhkspYtvWd-56" vertex="1"><mxGeometry y="270" width="190" height="30" as="geometry"/></mxCell><mxCell id="SZJAraMizJXhkspYtvWd-66" value="integrantes: List&lt;AlunoCliente&gt;" style="text;strokeColor=#909090;fillColor=none;align=left;verticalAlign=middle;spacingLeft=4;spacingRight=4;overflow=hidden;points=[[0,0.5],[1,0.5]];portConstraint=eastwest;rotatable=0;fontColor=#1A1A1A;rounded=0;labelBackgroundColor=none;" parent="SZJAraMizJXhkspYtvWd-56" vertex="1"><mxGeometry y="300" width="190" height="30" as="geometry"/></mxCell><mxCell id="SZJAraMizJXhkspYtvWd-71" value="Estagio_Livro" style="swimlane;fontStyle=1;childLayout=stackLayout;horizontal=1;startSize=30;horizontalStack=0;resizeParent=1;resizeParentMax=0;resizeLast=0;collapsible=1;marginBottom=0;fillColor=#F5AB50;strokeColor=#909090;fontColor=#1A1A1A;rounded=0;fontSize=13;labelBackgroundColor=none;" parent="1" vertex="1"><mxGeometry x="2500" y="1200" width="160" height="270" as="geometry"/></mxCell><mxCell id="SZJAraMizJXhkspYtvWd-72" value="ID_Estagio_Livro" style="text;strokeColor=#909090;fillColor=none;align=left;verticalAlign=middle;spacingLeft=4;spacingRight=4;overflow=hidden;points=[[0,0.5],[1,0.5]];portConstraint=eastwest;rotatable=0;fontColor=#1A1A1A;rounded=0;shadow=0;glass=0;fontStyle=1;labelBackgroundColor=none;" parent="SZJAraMizJXhkspYtvWd-71" vertex="1"><mxGeometry y="30" width="160" height="30" as="geometry"/></mxCell><mxCell id="SZJAraMizJXhkspYtvWd-73" value="nome" style="text;strokeColor=#909090;fillColor=#F5AB50;align=left;verticalAlign=middle;spacingLeft=4;spacingRight=4;overflow=hidden;points=[[0,0.5],[1,0.5]];portConstraint=eastwest;rotatable=0;rounded=0;labelBackgroundColor=none;fontColor=#1A1A1A;fillStyle=solid;" parent="SZJAraMizJXhkspYtvWd-71" vertex="1"><mxGeometry y="60" width="160" height="30" as="geometry"/></mxCell><mxCell id="SZJAraMizJXhkspYtvWd-74" value="idioma" style="text;strokeColor=#909090;fillColor=none;align=left;verticalAlign=middle;spacingLeft=4;spacingRight=4;overflow=hidden;points=[[0,0.5],[1,0.5]];portConstraint=eastwest;rotatable=0;fontColor=#1A1A1A;rounded=0;labelBackgroundColor=none;" parent="SZJAraMizJXhkspYtvWd-71" vertex="1"><mxGeometry y="90" width="160" height="30" as="geometry"/></mxCell><mxCell id="SZJAraMizJXhkspYtvWd-75" value="idadeMinima" style="text;strokeColor=#909090;fillColor=none;align=left;verticalAlign=middle;spacingLeft=4;spacingRight=4;overflow=hidden;points=[[0,0.5],[1,0.5]];portConstraint=eastwest;rotatable=0;fontColor=#1A1A1A;rounded=0;labelBackgroundColor=none;" parent="SZJAraMizJXhkspYtvWd-71" vertex="1"><mxGeometry y="120" width="160" height="30" as="geometry"/></mxCell><mxCell id="SZJAraMizJXhkspYtvWd-76" value="idadeMaxima" style="text;strokeColor=#909090;fillColor=none;align=left;verticalAlign=middle;spacingLeft=4;spacingRight=4;overflow=hidden;points=[[0,0.5],[1,0.5]];portConstraint=eastwest;rotatable=0;fontColor=#1A1A1A;rounded=0;labelBackgroundColor=none;" parent="SZJAraMizJXhkspYtvWd-71" vertex="1"><mxGeometry y="150" width="160" height="30" as="geometry"/></mxCell><mxCell id="SZJAraMizJXhkspYtvWd-77" value="numeroHoras" style="text;strokeColor=#909090;fillColor=none;align=left;verticalAlign=middle;spacingLeft=4;spacingRight=4;overflow=hidden;points=[[0,0.5],[1,0.5]];portConstraint=eastwest;rotatable=0;fontColor=#1A1A1A;rounded=0;labelBackgroundColor=none;" parent="SZJAraMizJXhkspYtvWd-71" vertex="1"><mxGeometry y="180" width="160" height="30" as="geometry"/></mxCell><mxCell id="SZJAraMizJXhkspYtvWd-78" value="cursoSerie" style="text;strokeColor=#909090;fillColor=#F5AB50;align=left;verticalAlign=middle;spacingLeft=4;spacingRight=4;overflow=hidden;points=[[0,0.5],[1,0.5]];portConstraint=eastwest;rotatable=0;rounded=0;labelBackgroundColor=none;fontColor=#1A1A1A;" parent="SZJAraMizJXhkspYtvWd-71" vertex="1"><mxGeometry y="210" width="160" height="30" as="geometry"/></mxCell><mxCell id="SZJAraMizJXhkspYtvWd-87" value="planejamentoLicoes" style="text;strokeColor=#909090;fillColor=#F5AB50;align=left;verticalAlign=middle;spacingLeft=4;spacingRight=4;overflow=hidden;points=[[0,0.5],[1,0.5]];portConstraint=eastwest;rotatable=0;rounded=0;labelBackgroundColor=none;fontColor=#1A1A1A;" parent="SZJAraMizJXhkspYtvWd-71" vertex="1"><mxGeometry y="240" width="160" height="30" as="geometry"/></mxCell><mxCell id="SZJAraMizJXhkspYtvWd-88" value="PlanejamentoLicoes" style="swimlane;fontStyle=1;childLayout=stackLayout;horizontal=1;startSize=30;horizontalStack=0;resizeParent=1;resizeParentMax=0;resizeLast=0;collapsible=1;marginBottom=0;fillColor=#F5AB50;strokeColor=#909090;fontColor=#1A1A1A;rounded=0;fontSize=13;labelBackgroundColor=none;" parent="1" vertex="1"><mxGeometry x="2170" y="1410" width="170" height="150" as="geometry"/></mxCell><mxCell id="SZJAraMizJXhkspYtvWd-89" value="ID_PlanejamentoLicoes" style="text;strokeColor=#909090;fillColor=none;align=left;verticalAlign=middle;spacingLeft=4;spacingRight=4;overflow=hidden;points=[[0,0.5],[1,0.5]];portConstraint=eastwest;rotatable=0;fontColor=#1A1A1A;rounded=0;shadow=0;glass=0;fontStyle=1;labelBackgroundColor=none;" parent="SZJAraMizJXhkspYtvWd-88" vertex="1"><mxGeometry y="30" width="170" height="30" as="geometry"/></mxCell><mxCell id="SZJAraMizJXhkspYtvWd-91" value="numeroLicao" style="text;strokeColor=#909090;fillColor=none;align=left;verticalAlign=middle;spacingLeft=4;spacingRight=4;overflow=hidden;points=[[0,0.5],[1,0.5]];portConstraint=eastwest;rotatable=0;fontColor=#1A1A1A;rounded=0;labelBackgroundColor=none;" parent="SZJAraMizJXhkspYtvWd-88" vertex="1"><mxGeometry y="60" width="170" height="30" as="geometry"/></mxCell><mxCell id="SZJAraMizJXhkspYtvWd-90" value="nome_descricao" style="text;strokeColor=#909090;fillColor=none;align=left;verticalAlign=middle;spacingLeft=4;spacingRight=4;overflow=hidden;points=[[0,0.5],[1,0.5]];portConstraint=eastwest;rotatable=0;fontColor=#1A1A1A;rounded=0;labelBackgroundColor=none;" parent="SZJAraMizJXhkspYtvWd-88" vertex="1"><mxGeometry y="90" width="170" height="30" as="geometry"/></mxCell><mxCell id="SZJAraMizJXhkspYtvWd-93" value="bloco" style="text;strokeColor=#909090;fillColor=none;align=left;verticalAlign=middle;spacingLeft=4;spacingRight=4;overflow=hidden;points=[[0,0.5],[1,0.5]];portConstraint=eastwest;rotatable=0;fontColor=#1A1A1A;rounded=0;labelBackgroundColor=none;" parent="SZJAraMizJXhkspYtvWd-88" vertex="1"><mxGeometry y="120" width="170" height="30" as="geometry"/></mxCell><mxCell id="SZJAraMizJXhkspYtvWd-97" style="edgeStyle=orthogonalEdgeStyle;rounded=0;jumpSize=6;orthogonalLoop=1;jettySize=auto;html=1;fontFamily=Helvetica;fontSize=12;fontColor=#1A1A1A;endArrow=none;endFill=0;labelBackgroundColor=none;strokeColor=#182E3E;" parent="1" source="SZJAraMizJXhkspYtvWd-89" target="SZJAraMizJXhkspYtvWd-87" edge="1"><mxGeometry relative="1" as="geometry"/></mxCell><mxCell id="SZJAraMizJXhkspYtvWd-99" style="edgeStyle=orthogonalEdgeStyle;rounded=0;jumpSize=6;orthogonalLoop=1;jettySize=auto;html=1;fontFamily=Helvetica;fontSize=12;fontColor=#1A1A1A;endArrow=none;endFill=0;labelBackgroundColor=none;strokeColor=#182E3E;exitX=1;exitY=0.5;exitDx=0;exitDy=0;entryX=0.75;entryY=0;entryDx=0;entryDy=0;" parent="1" source="JquZR43pOfXvCcVMopme-10" target="SZJAraMizJXhkspYtvWd-71" edge="1"><mxGeometry relative="1" as="geometry"/></mxCell><mxCell id="SZJAraMizJXhkspYtvWd-104" style="edgeStyle=orthogonalEdgeStyle;rounded=0;jumpSize=6;orthogonalLoop=1;jettySize=auto;html=1;fontFamily=Helvetica;fontSize=12;fontColor=#1A1A1A;endArrow=none;endFill=0;labelBackgroundColor=none;strokeColor=#182E3E;entryX=0;entryY=0.5;entryDx=0;entryDy=0;" parent="1" source="0fIxhT4gbRl_YkppA31t-2" target="SZJAraMizJXhkspYtvWd-103" edge="1"><mxGeometry relative="1" as="geometry"/></mxCell><mxCell id="SZJAraMizJXhkspYtvWd-106" style="edgeStyle=orthogonalEdgeStyle;rounded=0;jumpSize=6;orthogonalLoop=1;jettySize=auto;html=1;fontFamily=Helvetica;fontSize=12;fontColor=#1A1A1A;endArrow=none;endFill=0;labelBackgroundColor=none;strokeColor=#182E3E;" parent="1" source="SZJAraMizJXhkspYtvWd-105" target="1TT0_I5LyJGWJnFQ4JFd-2" edge="1"><mxGeometry relative="1" as="geometry"/></mxCell><mxCell id="SZJAraMizJXhkspYtvWd-108" style="edgeStyle=orthogonalEdgeStyle;rounded=0;jumpSize=6;orthogonalLoop=1;jettySize=auto;html=1;fontFamily=Helvetica;fontSize=12;fontColor=#1A1A1A;endArrow=none;endFill=0;labelBackgroundColor=none;strokeColor=#182E3E;" parent="1" source="SZJAraMizJXhkspYtvWd-67" target="JquZR43pOfXvCcVMopme-10" edge="1"><mxGeometry relative="1" as="geometry"/></mxCell><mxCell id="wGkZs1_F0PNANWOeqvhp-38" value="&lt;p style=&quot;margin:0px;margin-top:4px;text-align:center;&quot;&gt;&amp;lt;&amp;lt;enumeration&amp;gt;&amp;gt;&lt;br&gt;&lt;b&gt;EscolaridadeAtual&lt;/b&gt;&lt;/p&gt;&lt;hr&gt;&lt;p style=&quot;border-color: var(--border-color); margin: 0px 0px 0px 8px; text-align: left;&quot;&gt;Pré - Escola&lt;/p&gt;&lt;p style=&quot;border-color: var(--border-color); margin: 0px 0px 0px 8px; text-align: left;&quot;&gt;Ensino Fundamental&lt;/p&gt;&lt;p style=&quot;border-color: var(--border-color); margin: 0px 0px 0px 8px; text-align: left;&quot;&gt;Ensino Médio incompleto&lt;/p&gt;&lt;p style=&quot;border-color: var(--border-color); margin: 0px 0px 0px 8px; text-align: left;&quot;&gt;Ensino Médio completo&lt;br style=&quot;border-color: var(--border-color);&quot;&gt;&lt;/p&gt;&lt;p style=&quot;border-color: var(--border-color); margin: 0px 0px 0px 8px; text-align: left;&quot;&gt;Ensino Técnico - Integrado&lt;/p&gt;&lt;p style=&quot;border-color: var(--border-color); margin: 0px 0px 0px 8px; text-align: left;&quot;&gt;Ensino Técnico&lt;br style=&quot;border-color: var(--border-color);&quot;&gt;&lt;/p&gt;&lt;p style=&quot;border-color: var(--border-color); margin: 0px 0px 0px 8px; text-align: left;&quot;&gt;Ensino Superior incompleto&lt;/p&gt;&lt;p style=&quot;border-color: var(--border-color); margin: 0px 0px 0px 8px; text-align: left;&quot;&gt;Ensino Superior Completo&lt;/p&gt;&lt;p style=&quot;border-color: var(--border-color); margin: 0px 0px 0px 8px; text-align: left;&quot;&gt;Pós - Graduação&lt;/p&gt;" style="shape=rect;html=1;overflow=fill;whiteSpace=wrap;rounded=0;fontFamily=Helvetica;fontSize=12;fillColor=#F5AB50;labelBackgroundColor=none;strokeColor=#909090;fontColor=#1A1A1A;fillStyle=solid;" parent="1" vertex="1"><mxGeometry x="-210" y="850" width="160" height="190" as="geometry"/></mxCell><mxCell id="wGkZs1_F0PNANWOeqvhp-39" value="&lt;p style=&quot;margin:0px;margin-top:4px;text-align:center;&quot;&gt;&amp;lt;&amp;lt;enumeration&amp;gt;&amp;gt;&lt;br&gt;&lt;b&gt;TipoAtividadeEmAula&lt;/b&gt;&lt;/p&gt;&lt;hr&gt;&lt;p style=&quot;border-color: var(--border-color); margin: 0px 0px 0px 8px; text-align: left;&quot;&gt;Aula especial&lt;/p&gt;&lt;p style=&quot;border-color: var(--border-color); margin: 0px 0px 0px 8px; text-align: left;&quot;&gt;Aula normal&lt;/p&gt;&lt;p style=&quot;border-color: var(--border-color); margin: 0px 0px 0px 8px; text-align: left;&quot;&gt;Reforço&lt;/p&gt;&lt;p style=&quot;border-color: var(--border-color); margin: 0px 0px 0px 8px; text-align: left;&quot;&gt;Reposição&lt;/p&gt;&lt;p style=&quot;border-color: var(--border-color); margin: 0px 0px 0px 8px; text-align: left;&quot;&gt;Anteposição&lt;/p&gt;" style="shape=rect;html=1;overflow=fill;whiteSpace=wrap;rounded=0;fontFamily=Helvetica;fontSize=12;fillColor=#F5AB50;labelBackgroundColor=none;strokeColor=#909090;fontColor=#1A1A1A;" parent="1" vertex="1"><mxGeometry x="-270" y="1310" width="160" height="130" as="geometry"/></mxCell><mxCell id="wGkZs1_F0PNANWOeqvhp-41" style="edgeStyle=orthogonalEdgeStyle;rounded=0;orthogonalLoop=1;jettySize=auto;html=1;fontColor=#1A1A1A;endArrow=none;endFill=0;strokeColor=#182E3E;labelBackgroundColor=none;" parent="1" source="wGkZs1_F0PNANWOeqvhp-40" target="nWpIoVkVnjWbzlzGKt3M-36" edge="1"><mxGeometry relative="1" as="geometry"/></mxCell><mxCell id="wGkZs1_F0PNANWOeqvhp-40" value="&lt;p style=&quot;margin:0px;margin-top:4px;text-align:center;&quot;&gt;&amp;lt;&amp;lt;enumeration&amp;gt;&amp;gt;&lt;br&gt;&lt;b&gt;Serie&lt;/b&gt;&lt;/p&gt;&lt;hr&gt;&lt;p style=&quot;border-color: var(--border-color); margin: 0px 0px 0px 8px; text-align: left;&quot;&gt;&lt;span style=&quot;background-color: initial;&quot;&gt;1° Ano&lt;/span&gt;&lt;/p&gt;&lt;p style=&quot;border-color: var(--border-color); margin: 0px 0px 0px 8px; text-align: left;&quot;&gt;2° Ano&lt;span style=&quot;background-color: initial;&quot;&gt;&lt;br&gt;&lt;/span&gt;&lt;/p&gt;&lt;p style=&quot;border-color: var(--border-color); margin: 0px 0px 0px 8px; text-align: left;&quot;&gt;3° Ano&lt;br&gt;&lt;/p&gt;&lt;p style=&quot;border-color: var(--border-color); margin: 0px 0px 0px 8px; text-align: left;&quot;&gt;4° Ano&lt;br&gt;&lt;/p&gt;&lt;p style=&quot;border-color: var(--border-color); margin: 0px 0px 0px 8px; text-align: left;&quot;&gt;5° Ano&lt;/p&gt;&lt;p style=&quot;border-color: var(--border-color); margin: 0px 0px 0px 8px; text-align: left;&quot;&gt;6° Ano&lt;/p&gt;&lt;p style=&quot;border-color: var(--border-color); margin: 0px 0px 0px 8px; text-align: left;&quot;&gt;7° Ano&lt;/p&gt;&lt;p style=&quot;border-color: var(--border-color); margin: 0px 0px 0px 8px; text-align: left;&quot;&gt;8° Ano&lt;br&gt;&lt;/p&gt;&lt;p style=&quot;border-color: var(--border-color); margin: 0px 0px 0px 8px; text-align: left;&quot;&gt;9° Ano&lt;br&gt;&lt;/p&gt;&lt;p style=&quot;border-color: var(--border-color); margin: 0px 0px 0px 8px; text-align: left;&quot;&gt;1° Médio&lt;br&gt;&lt;/p&gt;&lt;p style=&quot;border-color: var(--border-color); margin: 0px 0px 0px 8px; text-align: left;&quot;&gt;2° Médio&lt;br&gt;&lt;/p&gt;&lt;p style=&quot;border-color: var(--border-color); margin: 0px 0px 0px 8px; text-align: left;&quot;&gt;3° Médio&lt;br&gt;&lt;/p&gt;" style="shape=rect;html=1;overflow=fill;whiteSpace=wrap;rounded=0;fontFamily=Helvetica;fontSize=12;fillColor=#F5AB50;labelBackgroundColor=none;strokeColor=#909090;fontColor=#1A1A1A;fillStyle=solid;" parent="1" vertex="1"><mxGeometry x="-350" y="850" width="120" height="230" as="geometry"/></mxCell><mxCell id="wGkZs1_F0PNANWOeqvhp-44" value="&lt;p style=&quot;margin:0px;margin-top:4px;text-align:center;&quot;&gt;&amp;lt;&amp;lt;enumeration&amp;gt;&amp;gt;&lt;br&gt;&lt;b&gt;ClassificacaoDeAluno&lt;/b&gt;&lt;/p&gt;&lt;hr&gt;&lt;p style=&quot;border-color: var(--border-color); margin: 0px 0px 0px 8px; text-align: left;&quot;&gt;Ativo&lt;/p&gt;&lt;p style=&quot;border-color: var(--border-color); margin: 0px 0px 0px 8px; text-align: left;&quot;&gt;Desistente&lt;/p&gt;&lt;p style=&quot;border-color: var(--border-color); margin: 0px 0px 0px 8px; text-align: left;&quot;&gt;Formado&lt;br&gt;&lt;/p&gt;&lt;p style=&quot;border-color: var(--border-color); margin: 0px 0px 0px 8px; text-align: left;&quot;&gt;Inativo&lt;/p&gt;&lt;p style=&quot;border-color: var(--border-color); margin: 0px 0px 0px 8px; text-align: left;&quot;&gt;Trancado&lt;/p&gt;" style="shape=rect;html=1;overflow=fill;whiteSpace=wrap;rounded=0;fontFamily=Helvetica;fontSize=12;fillColor=#F5AB50;labelBackgroundColor=none;strokeColor=#909090;fontColor=#1A1A1A;" parent="1" vertex="1"><mxGeometry x="-440" y="1570" width="160" height="130" as="geometry"/></mxCell><mxCell id="wGkZs1_F0PNANWOeqvhp-45" style="edgeStyle=orthogonalEdgeStyle;rounded=0;orthogonalLoop=1;jettySize=auto;html=1;exitX=0;exitY=0.5;exitDx=0;exitDy=0;entryX=1;entryY=0.5;entryDx=0;entryDy=0;fontColor=#1A1A1A;endArrow=none;endFill=0;strokeColor=#182E3E;labelBackgroundColor=none;" parent="1" source="nWpIoVkVnjWbzlzGKt3M-35" target="wGkZs1_F0PNANWOeqvhp-38" edge="1"><mxGeometry relative="1" as="geometry"/></mxCell><mxCell id="K7bReG7VReP9OpcojC8x-1" value="ID_ClienteAluno =&amp;nbsp; numero sequencial do cadastro + numero sequencial do contrato" style="text;html=1;align=center;verticalAlign=middle;resizable=0;points=[];autosize=1;strokeColor=#909090;fillColor=none;fontColor=#1A1A1A;labelBackgroundColor=none;rounded=0;" parent="1" vertex="1"><mxGeometry x="530" y="40" width="470" height="30" as="geometry"/></mxCell><mxCell id="K7bReG7VReP9OpcojC8x-2" value="&lt;p style=&quot;margin:0px;margin-top:4px;text-align:center;&quot;&gt;&amp;lt;&amp;lt;enumeration&amp;gt;&amp;gt;&lt;br&gt;&lt;b&gt;Modalidades&lt;/b&gt;&lt;/p&gt;&lt;hr&gt;&lt;p style=&quot;margin:0px;margin-left:8px;text-align:left;&quot;&gt;CONNECTIONS&lt;/p&gt;&lt;p style=&quot;margin:0px;margin-left:8px;text-align:left;&quot;&gt;&lt;span style=&quot;background-color: initial;&quot;&gt;INTERACTIVE&lt;/span&gt;&lt;/p&gt;" style="shape=rect;html=1;overflow=fill;whiteSpace=wrap;rounded=0;fontFamily=Helvetica;fontSize=12;fillColor=#F5AB50;labelBackgroundColor=none;strokeColor=#909090;fontColor=#1A1A1A;fillStyle=solid;" parent="1" vertex="1"><mxGeometry x="1050" y="992" width="140" height="86" as="geometry"/></mxCell><mxCell id="K7bReG7VReP9OpcojC8x-3" style="edgeStyle=orthogonalEdgeStyle;rounded=0;orthogonalLoop=1;jettySize=auto;html=1;endArrow=none;endFill=0;entryX=0;entryY=0.5;entryDx=0;entryDy=0;fontColor=#1A1A1A;strokeColor=#182E3E;labelBackgroundColor=none;" parent="1" source="0fIxhT4gbRl_YkppA31t-6" target="K7bReG7VReP9OpcojC8x-2" edge="1"><mxGeometry relative="1" as="geometry"/></mxCell><mxCell id="K7bReG7VReP9OpcojC8x-5" style="edgeStyle=orthogonalEdgeStyle;rounded=0;orthogonalLoop=1;jettySize=auto;html=1;endArrow=none;endFill=0;fontColor=#1A1A1A;strokeColor=#182E3E;exitX=1;exitY=0.5;exitDx=0;exitDy=0;labelBackgroundColor=none;" parent="1" source="K7bReG7VReP9OpcojC8x-4" target="JquZR43pOfXvCcVMopme-13" edge="1"><mxGeometry relative="1" as="geometry"/></mxCell><mxCell id="K7bReG7VReP9OpcojC8x-4" value="&lt;p style=&quot;margin:0px;margin-top:4px;text-align:center;&quot;&gt;&amp;lt;&amp;lt;enumeration&amp;gt;&amp;gt;&lt;br&gt;&lt;b&gt;Categoria&lt;/b&gt;&lt;/p&gt;&lt;hr&gt;&lt;p style=&quot;margin:0px;margin-left:8px;text-align:left;&quot;&gt;&lt;span style=&quot;background-color: initial;&quot;&gt;KIDS&lt;/span&gt;&lt;/p&gt;&lt;p style=&quot;margin:0px;margin-left:8px;text-align:left;&quot;&gt;&lt;span style=&quot;background-color: initial;&quot;&gt;TEENS&lt;/span&gt;&lt;/p&gt;&lt;p style=&quot;margin:0px;margin-left:8px;text-align:left;&quot;&gt;&lt;span style=&quot;background-color: initial;&quot;&gt;ADULTS&lt;/span&gt;&lt;/p&gt;&lt;p style=&quot;margin:0px;margin-left:8px;text-align:left;&quot;&gt;&lt;span style=&quot;background-color: initial;&quot;&gt;KIDS / TEENS&lt;/span&gt;&lt;/p&gt;&lt;p style=&quot;margin:0px;margin-left:8px;text-align:left;&quot;&gt;&lt;span style=&quot;background-color: initial;&quot;&gt;TEENS / ADULTS&lt;/span&gt;&lt;/p&gt;" style="shape=rect;html=1;overflow=fill;whiteSpace=wrap;rounded=0;fontFamily=Helvetica;fontSize=12;fillColor=#F5AB50;labelBackgroundColor=none;strokeColor=#909090;fontColor=#1A1A1A;fillStyle=solid;" parent="1" vertex="1"><mxGeometry x="1500" y="810" width="120" height="130" as="geometry"/></mxCell><mxCell id="K7bReG7VReP9OpcojC8x-11" style="edgeStyle=orthogonalEdgeStyle;rounded=0;orthogonalLoop=1;jettySize=auto;html=1;exitX=0;exitY=0.5;exitDx=0;exitDy=0;endArrow=none;endFill=0;fontColor=#1A1A1A;strokeColor=#182E3E;labelBackgroundColor=none;" parent="1" source="K7bReG7VReP9OpcojC8x-6" target="JquZR43pOfXvCcVMopme-11" edge="1"><mxGeometry relative="1" as="geometry"/></mxCell><mxCell id="K7bReG7VReP9OpcojC8x-6" value="&lt;p style=&quot;margin:0px;margin-top:4px;text-align:center;&quot;&gt;&amp;lt;&amp;lt;enumeration&amp;gt;&amp;gt;&lt;br&gt;&lt;b&gt;cursoSerie&lt;/b&gt;&lt;/p&gt;&lt;hr&gt;&lt;p style=&quot;margin:0px;margin-left:8px;text-align:left;&quot;&gt;&lt;span style=&quot;background-color: initial;&quot;&gt;KIDS&amp;nbsp; - Tots Series (ANUAL)&lt;/span&gt;&lt;br&gt;&lt;/p&gt;&lt;p style=&quot;margin:0px;margin-left:8px;text-align:left;&quot;&gt;&lt;span style=&quot;background-color: initial;&quot;&gt;KIDS - L.K. Series (ANUAL)&lt;br&gt;&lt;/span&gt;&lt;/p&gt;&lt;p style=&quot;margin:0px;margin-left:8px;text-align:left;&quot;&gt;&lt;span style=&quot;background-color: initial;&quot;&gt;KIDS - K. Series (ANUAL)&lt;/span&gt;&lt;/p&gt;&lt;p style=&quot;margin:0px;margin-left:8px;text-align:left;&quot;&gt;&lt;span style=&quot;background-color: initial;&quot;&gt;TEENS Series (ANUAL) 2nd Ed.&lt;br&gt;&lt;/span&gt;&lt;/p&gt;&lt;p style=&quot;margin:0px;margin-left:8px;text-align:left;&quot;&gt;&lt;span style=&quot;background-color: initial;&quot;&gt;TEENS Series (ANUAL) 3nd Ed.&lt;br&gt;&lt;/span&gt;&lt;/p&gt;&lt;p style=&quot;margin:0px;margin-left:8px;text-align:left;&quot;&gt;&lt;span style=&quot;background-color: initial;&quot;&gt;Ws Series (ANUAL) 2nd Ed.&lt;br&gt;&lt;/span&gt;&lt;/p&gt;&lt;p style=&quot;margin:0px;margin-left:8px;text-align:left;&quot;&gt;&lt;span style=&quot;background-color: initial;&quot;&gt;Ws Series (ANUAL) 3nd Ed.&lt;br&gt;&lt;/span&gt;&lt;/p&gt;&lt;p style=&quot;margin:0px;margin-left:8px;text-align:left;&quot;&gt;&lt;span style=&quot;background-color: initial;&quot;&gt;ESPAÑOL Series (ANUAL)&lt;br&gt;&lt;/span&gt;&lt;/p&gt;&lt;p style=&quot;margin:0px;margin-left:8px;text-align:left;&quot;&gt;&lt;span style=&quot;background-color: initial;&quot;&gt;ITALIANO Series (ANUAL)&lt;br&gt;&lt;/span&gt;&lt;/p&gt;" style="shape=rect;html=1;overflow=fill;whiteSpace=wrap;rounded=0;fontFamily=Helvetica;fontSize=12;fillColor=#F5AB50;labelBackgroundColor=none;strokeColor=#909090;arcSize=8;fontColor=#1A1A1A;fillStyle=solid;" parent="1" vertex="1"><mxGeometry x="2140" y="790" width="190" height="180" as="geometry"/></mxCell><mxCell id="K7bReG7VReP9OpcojC8x-7" style="edgeStyle=orthogonalEdgeStyle;rounded=0;orthogonalLoop=1;jettySize=auto;html=1;exitX=0.5;exitY=1;exitDx=0;exitDy=0;endArrow=none;endFill=0;fontColor=#1A1A1A;strokeColor=#182E3E;labelBackgroundColor=none;" parent="1" source="K7bReG7VReP9OpcojC8x-6" target="K7bReG7VReP9OpcojC8x-6" edge="1"><mxGeometry relative="1" as="geometry"/></mxCell><mxCell id="K7bReG7VReP9OpcojC8x-10" style="edgeStyle=orthogonalEdgeStyle;rounded=0;orthogonalLoop=1;jettySize=auto;html=1;endArrow=none;endFill=0;fontColor=#1A1A1A;strokeColor=#182E3E;labelBackgroundColor=none;" parent="1" source="K7bReG7VReP9OpcojC8x-9" target="SZJAraMizJXhkspYtvWd-71" edge="1"><mxGeometry relative="1" as="geometry"/></mxCell><mxCell id="K7bReG7VReP9OpcojC8x-12" style="edgeStyle=orthogonalEdgeStyle;rounded=0;orthogonalLoop=1;jettySize=auto;html=1;exitX=1;exitY=0.5;exitDx=0;exitDy=0;endArrow=none;endFill=0;fontColor=#1A1A1A;strokeColor=#182E3E;labelBackgroundColor=none;" parent="1" source="1TT0_I5LyJGWJnFQ4JFd-4" target="SZJAraMizJXhkspYtvWd-72" edge="1"><mxGeometry relative="1" as="geometry"/></mxCell><mxCell id="K7bReG7VReP9OpcojC8x-13" value="&lt;p style=&quot;margin:0px;margin-top:4px;text-align:center;&quot;&gt;&amp;lt;&amp;lt;enumeration&amp;gt;&amp;gt;&lt;br&gt;&lt;b&gt;NomeLivros&lt;/b&gt;&lt;/p&gt;&lt;hr&gt;&lt;font style=&quot;font-size: 12px;&quot;&gt;&lt;span style=&quot;background-color: initial;&quot;&gt;&lt;div style=&quot;text-align: left;&quot;&gt;&lt;span style=&quot;background-color: initial;&quot;&gt;&amp;nbsp;Tots 2&lt;/span&gt;&lt;br&gt;&lt;/div&gt;&lt;/span&gt;&lt;span style=&quot;background-color: initial;&quot;&gt;&lt;div style=&quot;text-align: left;&quot;&gt;&lt;span style=&quot;background-color: initial;&quot;&gt;&amp;nbsp;Tots 4&lt;/span&gt;&lt;/div&gt;&lt;/span&gt;&lt;span style=&quot;background-color: initial;&quot;&gt;&lt;div style=&quot;text-align: left;&quot;&gt;&lt;span style=&quot;background-color: initial;&quot;&gt;&amp;nbsp;Tots 6&lt;/span&gt;&lt;/div&gt;&lt;/span&gt;&lt;span style=&quot;background-color: initial;&quot;&gt;&lt;div style=&quot;text-align: left;&quot;&gt;&lt;span style=&quot;background-color: initial;&quot;&gt;&amp;nbsp;Little Kids 2&lt;/span&gt;&lt;/div&gt;&lt;/span&gt;&lt;span style=&quot;background-color: initial;&quot;&gt;&lt;div style=&quot;text-align: left;&quot;&gt;&lt;span style=&quot;background-color: initial;&quot;&gt;&amp;nbsp;Little Kids 4&lt;/span&gt;&lt;/div&gt;&lt;/span&gt;&lt;span style=&quot;background-color: initial;&quot;&gt;&lt;div style=&quot;text-align: left;&quot;&gt;&lt;span style=&quot;background-color: initial;&quot;&gt;&amp;nbsp;Kids 2&lt;/span&gt;&lt;/div&gt;&lt;/span&gt;&lt;span style=&quot;background-color: initial;&quot;&gt;&lt;div style=&quot;text-align: left;&quot;&gt;&lt;span style=&quot;background-color: initial;&quot;&gt;&amp;nbsp;Kids 4&lt;/span&gt;&lt;/div&gt;&lt;/span&gt;&lt;span style=&quot;background-color: initial;&quot;&gt;&lt;div style=&quot;text-align: left;&quot;&gt;&lt;span style=&quot;background-color: initial;&quot;&gt;&amp;nbsp;Next Generation&lt;/span&gt;&lt;/div&gt;&lt;/span&gt;&lt;span style=&quot;background-color: initial;&quot;&gt;&lt;div style=&quot;text-align: left;&quot;&gt;&lt;span style=&quot;background-color: initial;&quot;&gt;&amp;nbsp;Teens 2 2&lt;/span&gt;&lt;sup style=&quot;background-color: initial;&quot;&gt;nd&lt;/sup&gt;&lt;span style=&quot;background-color: initial;&quot;&gt; Ed.&lt;/span&gt;&lt;/div&gt;&lt;/span&gt;&lt;span style=&quot;background-color: initial;&quot;&gt;&lt;div style=&quot;text-align: left;&quot;&gt;&lt;span style=&quot;background-color: initial;&quot;&gt;&amp;nbsp;Teens 4 2&lt;/span&gt;&lt;sup style=&quot;background-color: initial;&quot;&gt;nd&lt;/sup&gt;&lt;span style=&quot;background-color: initial;&quot;&gt; Ed.&lt;/span&gt;&lt;/div&gt;&lt;/span&gt;&lt;span style=&quot;background-color: initial;&quot;&gt;&lt;div style=&quot;text-align: left;&quot;&gt;&lt;span style=&quot;background-color: initial;&quot;&gt;&amp;nbsp;Teens 6 2&lt;/span&gt;&lt;sup style=&quot;background-color: initial;&quot;&gt;nd&lt;/sup&gt;&lt;span style=&quot;background-color: initial;&quot;&gt; Ed.&lt;/span&gt;&lt;/div&gt;&lt;/span&gt;&lt;span style=&quot;background-color: initial;&quot;&gt;&lt;div style=&quot;text-align: left;&quot;&gt;&lt;span style=&quot;background-color: initial;&quot;&gt;&amp;nbsp;Teens 8 2&lt;/span&gt;&lt;sup style=&quot;background-color: initial;&quot;&gt;nd&lt;/sup&gt;&lt;span style=&quot;background-color: initial;&quot;&gt; Ed.&lt;/span&gt;&lt;/div&gt;&lt;/span&gt;&lt;span style=&quot;background-color: initial;&quot;&gt;&lt;div style=&quot;text-align: left;&quot;&gt;&lt;span style=&quot;background-color: initial;&quot;&gt;&amp;nbsp;Teens 2 3&lt;/span&gt;&lt;sup style=&quot;background-color: initial;&quot;&gt;rd&lt;/sup&gt;&lt;span style=&quot;background-color: initial;&quot;&gt; Ed.&lt;/span&gt;&lt;/div&gt;&lt;/span&gt;&lt;span style=&quot;background-color: initial;&quot;&gt;&lt;div style=&quot;text-align: left;&quot;&gt;&lt;span style=&quot;background-color: initial;&quot;&gt;&amp;nbsp;Teens 4 3&lt;/span&gt;&lt;sup style=&quot;background-color: initial;&quot;&gt;rd&lt;/sup&gt;&lt;span style=&quot;background-color: initial;&quot;&gt; Ed.&lt;/span&gt;&lt;/div&gt;&lt;/span&gt;&lt;span style=&quot;background-color: initial;&quot;&gt;&lt;div style=&quot;text-align: left;&quot;&gt;&lt;span style=&quot;background-color: initial;&quot;&gt;&amp;nbsp;Teens 6 3&lt;/span&gt;&lt;sup style=&quot;background-color: initial;&quot;&gt;rd&lt;/sup&gt;&lt;span style=&quot;background-color: initial;&quot;&gt; Ed.&lt;/span&gt;&lt;/div&gt;&lt;/span&gt;&lt;span style=&quot;background-color: initial;&quot;&gt;&lt;div style=&quot;text-align: left;&quot;&gt;&lt;span style=&quot;background-color: initial;&quot;&gt;&amp;nbsp;Teens 8 3&lt;/span&gt;&lt;sup style=&quot;background-color: initial;&quot;&gt;rd&lt;/sup&gt;&lt;span style=&quot;background-color: initial;&quot;&gt; Ed.&lt;/span&gt;&lt;/div&gt;&lt;/span&gt;&lt;span style=&quot;background-color: initial;&quot;&gt;&lt;div style=&quot;text-align: left;&quot;&gt;&lt;span style=&quot;background-color: initial;&quot;&gt;&amp;nbsp;W2 Old&lt;/span&gt;&lt;/div&gt;&lt;/span&gt;&lt;span style=&quot;background-color: initial;&quot;&gt;&lt;div style=&quot;text-align: left;&quot;&gt;&lt;span style=&quot;background-color: initial;&quot;&gt;&amp;nbsp;W4 Old&lt;/span&gt;&lt;/div&gt;&lt;/span&gt;&lt;span style=&quot;background-color: initial;&quot;&gt;&lt;div style=&quot;text-align: left;&quot;&gt;&lt;span style=&quot;background-color: initial;&quot;&gt;&amp;nbsp;W6 Old&lt;/span&gt;&lt;/div&gt;&lt;/span&gt;&lt;span style=&quot;background-color: initial;&quot;&gt;&lt;div style=&quot;text-align: left;&quot;&gt;&lt;span style=&quot;background-color: initial;&quot;&gt;&amp;nbsp;W8 Old&lt;/span&gt;&lt;/div&gt;&lt;/span&gt;&lt;span style=&quot;background-color: initial;&quot;&gt;&lt;div style=&quot;text-align: left;&quot;&gt;&lt;span style=&quot;background-color: initial;&quot;&gt;&amp;nbsp;W10 Old&lt;/span&gt;&lt;/div&gt;&lt;/span&gt;&lt;span style=&quot;background-color: initial;&quot;&gt;&lt;div style=&quot;text-align: left;&quot;&gt;&lt;span style=&quot;background-color: initial;&quot;&gt;&amp;nbsp;W12 Old&lt;/span&gt;&lt;/div&gt;&lt;/span&gt;&lt;span style=&quot;background-color: initial;&quot;&gt;&lt;div style=&quot;text-align: left;&quot;&gt;&lt;span style=&quot;background-color: initial;&quot;&gt;&amp;nbsp;W2 New Ed.&lt;/span&gt;&lt;/div&gt;&lt;/span&gt;&lt;span style=&quot;background-color: initial;&quot;&gt;&lt;div style=&quot;text-align: left;&quot;&gt;&lt;span style=&quot;background-color: initial;&quot;&gt;&amp;nbsp;W4 New Ed.&lt;/span&gt;&lt;/div&gt;&lt;/span&gt;&lt;span style=&quot;background-color: initial;&quot;&gt;&lt;div style=&quot;text-align: left;&quot;&gt;&lt;span style=&quot;background-color: initial;&quot;&gt;&amp;nbsp;W6 New Ed.&lt;/span&gt;&lt;/div&gt;&lt;/span&gt;&lt;span style=&quot;background-color: initial;&quot;&gt;&lt;div style=&quot;text-align: left;&quot;&gt;&lt;span style=&quot;background-color: initial;&quot;&gt;&amp;nbsp;W8 New Ed.&lt;/span&gt;&lt;/div&gt;&lt;/span&gt;&lt;span style=&quot;background-color: initial;&quot;&gt;&lt;div style=&quot;text-align: left;&quot;&gt;&lt;span style=&quot;background-color: initial;&quot;&gt;&amp;nbsp;W10 New Ed.&lt;/span&gt;&lt;/div&gt;&lt;/span&gt;&lt;span style=&quot;background-color: initial;&quot;&gt;&lt;div style=&quot;text-align: left;&quot;&gt;&lt;span style=&quot;background-color: initial;&quot;&gt;&amp;nbsp;W12 New Ed.&lt;/span&gt;&lt;/div&gt;&lt;/span&gt;&lt;span style=&quot;background-color: initial;&quot;&gt;&lt;div style=&quot;text-align: left;&quot;&gt;&lt;span style=&quot;background-color: initial;&quot;&gt;&amp;nbsp;Español 2&lt;/span&gt;&lt;/div&gt;&lt;/span&gt;&lt;span style=&quot;background-color: initial;&quot;&gt;&lt;div style=&quot;text-align: left;&quot;&gt;&lt;span style=&quot;background-color: initial;&quot;&gt;&amp;nbsp;Español 4&lt;/span&gt;&lt;/div&gt;&lt;/span&gt;&lt;span style=&quot;background-color: initial;&quot;&gt;&lt;div style=&quot;text-align: left;&quot;&gt;&lt;span style=&quot;background-color: initial;&quot;&gt;&amp;nbsp;Español 6&lt;/span&gt;&lt;/div&gt;&lt;/span&gt;&lt;span style=&quot;background-color: initial;&quot;&gt;&lt;div style=&quot;text-align: left;&quot;&gt;&lt;span style=&quot;background-color: initial;&quot;&gt;&amp;nbsp;Italiano 2&lt;/span&gt;&lt;/div&gt;&lt;div style=&quot;text-align: left;&quot;&gt;&lt;span style=&quot;background-color: initial;&quot;&gt;&amp;nbsp;Italiano 4&lt;/span&gt;&lt;/div&gt;&lt;/span&gt;&lt;/font&gt;&lt;p style=&quot;line-height: normal;&quot; class=&quot;MsoNormal&quot;&gt;&lt;/p&gt;" style="shape=rect;html=1;overflow=fill;whiteSpace=wrap;rounded=0;fontFamily=Helvetica;fontSize=12;fillColor=#F5AB50;labelBackgroundColor=none;strokeColor=#909090;arcSize=8;spacingLeft=1;fontColor=#1A1A1A;fillStyle=solid;" parent="1" vertex="1"><mxGeometry x="2800" y="1110" width="120" height="550" as="geometry"/></mxCell><mxCell id="4TfyeLQULbwjOQ5E9iak-1" style="edgeStyle=orthogonalEdgeStyle;rounded=0;orthogonalLoop=1;jettySize=auto;html=1;endArrow=none;endFill=0;labelBackgroundColor=none;strokeColor=#182E3E;fontColor=#1A1A1A;" parent="1" source="SZJAraMizJXhkspYtvWd-59" target="JquZR43pOfXvCcVMopme-9" edge="1"><mxGeometry relative="1" as="geometry"/></mxCell><mxCell id="4TfyeLQULbwjOQ5E9iak-2" style="edgeStyle=orthogonalEdgeStyle;rounded=0;orthogonalLoop=1;jettySize=auto;html=1;entryX=1;entryY=0.074;entryDx=0;entryDy=0;entryPerimeter=0;endArrow=none;endFill=0;labelBackgroundColor=none;strokeColor=#182E3E;fontColor=#1A1A1A;" parent="1" source="SZJAraMizJXhkspYtvWd-61" target="SZJAraMizJXhkspYtvWd-71" edge="1"><mxGeometry relative="1" as="geometry"/></mxCell><mxCell id="4TfyeLQULbwjOQ5E9iak-3" style="edgeStyle=orthogonalEdgeStyle;rounded=0;orthogonalLoop=1;jettySize=auto;html=1;endArrow=none;endFill=0;labelBackgroundColor=none;strokeColor=#182E3E;fontColor=#1A1A1A;" parent="1" source="SZJAraMizJXhkspYtvWd-62" target="IjbWlySuSJRFnJmlUXuC-1" edge="1"><mxGeometry relative="1" as="geometry"><Array as="points"><mxPoint x="1475" y="300"/><mxPoint x="820" y="300"/><mxPoint x="820" y="170"/><mxPoint x="-410" y="170"/></Array></mxGeometry></mxCell><mxCell id="SZJAraMizJXhkspYtvWd-122" value="FichaFrequencia" style="swimlane;fontStyle=1;childLayout=stackLayout;horizontal=1;startSize=30;horizontalStack=0;resizeParent=1;resizeParentMax=0;resizeLast=0;collapsible=1;marginBottom=0;fillColor=#F5AB50;strokeColor=#909090;fontColor=#1A1A1A;rounded=0;fontSize=13;labelBackgroundColor=none;" parent="1" vertex="1"><mxGeometry y="1460" width="160" height="300" as="geometry"/></mxCell><mxCell id="SZJAraMizJXhkspYtvWd-123" value="ID_RegistroAula" style="text;strokeColor=#909090;fillColor=none;align=left;verticalAlign=middle;spacingLeft=4;spacingRight=4;overflow=hidden;points=[[0,0.5],[1,0.5]];portConstraint=eastwest;rotatable=0;fontColor=#1A1A1A;rounded=0;shadow=0;glass=0;fontStyle=1;labelBackgroundColor=none;" parent="SZJAraMizJXhkspYtvWd-122" vertex="1"><mxGeometry y="30" width="160" height="30" as="geometry"/></mxCell><mxCell id="SZJAraMizJXhkspYtvWd-124" value="data" style="text;strokeColor=#909090;fillColor=#F5AB50;align=left;verticalAlign=middle;spacingLeft=4;spacingRight=4;overflow=hidden;points=[[0,0.5],[1,0.5]];portConstraint=eastwest;rotatable=0;rounded=0;labelBackgroundColor=none;fontColor=#1A1A1A;" parent="SZJAraMizJXhkspYtvWd-122" vertex="1"><mxGeometry y="60" width="160" height="30" as="geometry"/></mxCell><mxCell id="SZJAraMizJXhkspYtvWd-125" value="aula" style="text;strokeColor=#909090;fillColor=none;align=left;verticalAlign=middle;spacingLeft=4;spacingRight=4;overflow=hidden;points=[[0,0.5],[1,0.5]];portConstraint=eastwest;rotatable=0;fontColor=#1A1A1A;rounded=0;labelBackgroundColor=none;" parent="SZJAraMizJXhkspYtvWd-122" vertex="1"><mxGeometry y="90" width="160" height="30" as="geometry"/></mxCell><mxCell id="SZJAraMizJXhkspYtvWd-126" value="presenca" style="text;strokeColor=#909090;fillColor=none;align=left;verticalAlign=middle;spacingLeft=4;spacingRight=4;overflow=hidden;points=[[0,0.5],[1,0.5]];portConstraint=eastwest;rotatable=0;fontColor=#1A1A1A;rounded=0;labelBackgroundColor=none;" parent="SZJAraMizJXhkspYtvWd-122" vertex="1"><mxGeometry y="120" width="160" height="30" as="geometry"/></mxCell><mxCell id="SZJAraMizJXhkspYtvWd-127" value="horario" style="text;strokeColor=#909090;fillColor=#F5AB50;align=left;verticalAlign=middle;spacingLeft=4;spacingRight=4;overflow=hidden;points=[[0,0.5],[1,0.5]];portConstraint=eastwest;rotatable=0;rounded=0;labelBackgroundColor=none;fontColor=#1A1A1A;" parent="SZJAraMizJXhkspYtvWd-122" vertex="1"><mxGeometry y="150" width="160" height="30" as="geometry"/></mxCell><mxCell id="SZJAraMizJXhkspYtvWd-152" value="licaoConteudo" style="text;strokeColor=#909090;fillColor=none;align=left;verticalAlign=middle;spacingLeft=4;spacingRight=4;overflow=hidden;points=[[0,0.5],[1,0.5]];portConstraint=eastwest;rotatable=0;fontColor=#1A1A1A;rounded=0;labelBackgroundColor=none;" parent="SZJAraMizJXhkspYtvWd-122" vertex="1"><mxGeometry y="180" width="160" height="30" as="geometry"/></mxCell><mxCell id="SZJAraMizJXhkspYtvWd-153" value="observacaoAnotacoes" style="text;strokeColor=#909090;fillColor=none;align=left;verticalAlign=middle;spacingLeft=4;spacingRight=4;overflow=hidden;points=[[0,0.5],[1,0.5]];portConstraint=eastwest;rotatable=0;fontColor=#1A1A1A;rounded=0;labelBackgroundColor=none;" parent="SZJAraMizJXhkspYtvWd-122" vertex="1"><mxGeometry y="210" width="160" height="30" as="geometry"/></mxCell><mxCell id="SZJAraMizJXhkspYtvWd-154" value="avaliacoes" style="text;strokeColor=#909090;fillColor=#F5AB50;align=left;verticalAlign=middle;spacingLeft=4;spacingRight=4;overflow=hidden;points=[[0,0.5],[1,0.5]];portConstraint=eastwest;rotatable=0;rounded=0;labelBackgroundColor=none;fontColor=#1A1A1A;" parent="SZJAraMizJXhkspYtvWd-122" vertex="1"><mxGeometry y="240" width="160" height="30" as="geometry"/></mxCell><mxCell id="SZJAraMizJXhkspYtvWd-169" value="professor_a" style="text;strokeColor=#909090;fillColor=none;align=left;verticalAlign=middle;spacingLeft=4;spacingRight=4;overflow=hidden;points=[[0,0.5],[1,0.5]];portConstraint=eastwest;rotatable=0;fontColor=#1A1A1A;rounded=0;labelBackgroundColor=none;" parent="SZJAraMizJXhkspYtvWd-122" vertex="1"><mxGeometry y="270" width="160" height="30" as="geometry"/></mxCell><mxCell id="SZJAraMizJXhkspYtvWd-133" value="Data" style="swimlane;fontStyle=1;childLayout=stackLayout;horizontal=1;startSize=30;horizontalStack=0;resizeParent=1;resizeParentMax=0;resizeLast=0;collapsible=1;marginBottom=0;fillColor=#F5AB50;strokeColor=#909090;fontColor=#1A1A1A;rounded=0;fontSize=13;labelBackgroundColor=none;" parent="1" vertex="1"><mxGeometry x="20" y="1280" width="120" height="150" as="geometry"/></mxCell><mxCell id="SZJAraMizJXhkspYtvWd-138" value="diaDoMes" style="text;strokeColor=#909090;fillColor=none;align=left;verticalAlign=middle;spacingLeft=4;spacingRight=4;overflow=hidden;points=[[0,0.5],[1,0.5]];portConstraint=eastwest;rotatable=0;fontColor=#1A1A1A;rounded=0;labelBackgroundColor=none;" parent="SZJAraMizJXhkspYtvWd-133" vertex="1"><mxGeometry y="30" width="120" height="30" as="geometry"/></mxCell><mxCell id="SZJAraMizJXhkspYtvWd-135" value="mes" style="text;strokeColor=#909090;fillColor=none;align=left;verticalAlign=middle;spacingLeft=4;spacingRight=4;overflow=hidden;points=[[0,0.5],[1,0.5]];portConstraint=eastwest;rotatable=0;fontColor=#1A1A1A;rounded=0;labelBackgroundColor=none;" parent="SZJAraMizJXhkspYtvWd-133" vertex="1"><mxGeometry y="60" width="120" height="30" as="geometry"/></mxCell><mxCell id="SZJAraMizJXhkspYtvWd-136" value="numeroSemana" style="text;strokeColor=#909090;fillColor=none;align=left;verticalAlign=middle;spacingLeft=4;spacingRight=4;overflow=hidden;points=[[0,0.5],[1,0.5]];portConstraint=eastwest;rotatable=0;fontColor=#1A1A1A;rounded=0;labelBackgroundColor=none;" parent="SZJAraMizJXhkspYtvWd-133" vertex="1"><mxGeometry y="90" width="120" height="30" as="geometry"/></mxCell><mxCell id="SZJAraMizJXhkspYtvWd-137" value="diaSemana" style="text;strokeColor=#909090;fillColor=none;align=left;verticalAlign=middle;spacingLeft=4;spacingRight=4;overflow=hidden;points=[[0,0.5],[1,0.5]];portConstraint=eastwest;rotatable=0;fontColor=#1A1A1A;rounded=0;labelBackgroundColor=none;" parent="SZJAraMizJXhkspYtvWd-133" vertex="1"><mxGeometry y="120" width="120" height="30" as="geometry"/></mxCell><mxCell id="SZJAraMizJXhkspYtvWd-144" value="Horario" style="swimlane;fontStyle=1;childLayout=stackLayout;horizontal=1;startSize=30;horizontalStack=0;resizeParent=1;resizeParentMax=0;resizeLast=0;collapsible=1;marginBottom=0;fillColor=#F5AB50;strokeColor=#909090;fontColor=#1A1A1A;rounded=0;fontSize=13;labelBackgroundColor=none;" parent="1" vertex="1"><mxGeometry x="-210" y="1540" width="120" height="120" as="geometry"/></mxCell><mxCell id="SZJAraMizJXhkspYtvWd-146" value="inicio" style="text;strokeColor=#909090;fillColor=none;align=left;verticalAlign=middle;spacingLeft=4;spacingRight=4;overflow=hidden;points=[[0,0.5],[1,0.5]];portConstraint=eastwest;rotatable=0;fontColor=#1A1A1A;rounded=0;labelBackgroundColor=none;" parent="SZJAraMizJXhkspYtvWd-144" vertex="1"><mxGeometry y="30" width="120" height="30" as="geometry"/></mxCell><mxCell id="SZJAraMizJXhkspYtvWd-147" value="fim" style="text;strokeColor=#909090;fillColor=none;align=left;verticalAlign=middle;spacingLeft=4;spacingRight=4;overflow=hidden;points=[[0,0.5],[1,0.5]];portConstraint=eastwest;rotatable=0;fontColor=#1A1A1A;rounded=0;labelBackgroundColor=none;" parent="SZJAraMizJXhkspYtvWd-144" vertex="1"><mxGeometry y="60" width="120" height="30" as="geometry"/></mxCell><mxCell id="SZJAraMizJXhkspYtvWd-148" value="duracao" style="text;strokeColor=#909090;fillColor=none;align=left;verticalAlign=middle;spacingLeft=4;spacingRight=4;overflow=hidden;points=[[0,0.5],[1,0.5]];portConstraint=eastwest;rotatable=0;fontColor=#1A1A1A;rounded=0;labelBackgroundColor=none;" parent="SZJAraMizJXhkspYtvWd-144" vertex="1"><mxGeometry y="90" width="120" height="30" as="geometry"/></mxCell><mxCell id="SZJAraMizJXhkspYtvWd-150" style="edgeStyle=orthogonalEdgeStyle;rounded=0;jumpSize=6;orthogonalLoop=1;jettySize=auto;html=1;fontFamily=Helvetica;fontSize=12;fontColor=#1A1A1A;endArrow=none;endFill=0;labelBackgroundColor=none;strokeColor=#182E3E;" parent="1" source="SZJAraMizJXhkspYtvWd-133" target="SZJAraMizJXhkspYtvWd-124" edge="1"><mxGeometry relative="1" as="geometry"><mxPoint x="250" y="1485.0588235294117" as="sourcePoint"/><Array as="points"><mxPoint x="70" y="1440"/><mxPoint x="-20" y="1440"/><mxPoint x="-20" y="1525"/></Array></mxGeometry></mxCell><mxCell id="SZJAraMizJXhkspYtvWd-151" style="edgeStyle=orthogonalEdgeStyle;rounded=0;jumpSize=6;orthogonalLoop=1;jettySize=auto;html=1;fontFamily=Helvetica;fontSize=12;fontColor=#1A1A1A;endArrow=none;endFill=0;labelBackgroundColor=none;strokeColor=#182E3E;entryX=0;entryY=0.5;entryDx=0;entryDy=0;" parent="1" source="SZJAraMizJXhkspYtvWd-144" target="SZJAraMizJXhkspYtvWd-127" edge="1"><mxGeometry relative="1" as="geometry"><mxPoint x="250" y="1695.0588235294117" as="sourcePoint"/><Array as="points"/></mxGeometry></mxCell><mxCell id="SZJAraMizJXhkspYtvWd-155" value="Avaliacoes" style="swimlane;fontStyle=1;childLayout=stackLayout;horizontal=1;startSize=30;horizontalStack=0;resizeParent=1;resizeParentMax=0;resizeLast=0;collapsible=1;marginBottom=0;fillColor=#F5AB50;strokeColor=#909090;fontColor=#1A1A1A;rounded=0;fontSize=13;labelBackgroundColor=none;" parent="1" vertex="1"><mxGeometry x="10" y="1777.5" width="120" height="300" as="geometry"/></mxCell><mxCell id="SZJAraMizJXhkspYtvWd-157" value="fala" style="text;strokeColor=#909090;fillColor=none;align=left;verticalAlign=middle;spacingLeft=4;spacingRight=4;overflow=hidden;points=[[0,0.5],[1,0.5]];portConstraint=eastwest;rotatable=0;fontColor=#1A1A1A;rounded=0;labelBackgroundColor=none;" parent="SZJAraMizJXhkspYtvWd-155" vertex="1"><mxGeometry y="30" width="120" height="30" as="geometry"/></mxCell><mxCell id="SZJAraMizJXhkspYtvWd-158" value="audicao" style="text;strokeColor=#909090;fillColor=none;align=left;verticalAlign=middle;spacingLeft=4;spacingRight=4;overflow=hidden;points=[[0,0.5],[1,0.5]];portConstraint=eastwest;rotatable=0;fontColor=#1A1A1A;rounded=0;labelBackgroundColor=none;" parent="SZJAraMizJXhkspYtvWd-155" vertex="1"><mxGeometry y="60" width="120" height="30" as="geometry"/></mxCell><mxCell id="SZJAraMizJXhkspYtvWd-159" value="leitura" style="text;strokeColor=#909090;fillColor=none;align=left;verticalAlign=middle;spacingLeft=4;spacingRight=4;overflow=hidden;points=[[0,0.5],[1,0.5]];portConstraint=eastwest;rotatable=0;fontColor=#1A1A1A;rounded=0;labelBackgroundColor=none;" parent="SZJAraMizJXhkspYtvWd-155" vertex="1"><mxGeometry y="90" width="120" height="30" as="geometry"/></mxCell><mxCell id="SZJAraMizJXhkspYtvWd-160" value="escrita" style="text;strokeColor=#909090;fillColor=none;align=left;verticalAlign=middle;spacingLeft=4;spacingRight=4;overflow=hidden;points=[[0,0.5],[1,0.5]];portConstraint=eastwest;rotatable=0;fontColor=#1A1A1A;rounded=0;labelBackgroundColor=none;" parent="SZJAraMizJXhkspYtvWd-155" vertex="1"><mxGeometry y="120" width="120" height="30" as="geometry"/></mxCell><mxCell id="SZJAraMizJXhkspYtvWd-161" value="tarefa" style="text;strokeColor=#909090;fillColor=none;align=left;verticalAlign=middle;spacingLeft=4;spacingRight=4;overflow=hidden;points=[[0,0.5],[1,0.5]];portConstraint=eastwest;rotatable=0;fontColor=#1A1A1A;rounded=0;labelBackgroundColor=none;" parent="SZJAraMizJXhkspYtvWd-155" vertex="1"><mxGeometry y="150" width="120" height="30" as="geometry"/></mxCell><mxCell id="SZJAraMizJXhkspYtvWd-162" value="checkingSentences" style="text;strokeColor=#909090;fillColor=none;align=left;verticalAlign=middle;spacingLeft=4;spacingRight=4;overflow=hidden;points=[[0,0.5],[1,0.5]];portConstraint=eastwest;rotatable=0;fontColor=#1A1A1A;rounded=0;labelBackgroundColor=none;" parent="SZJAraMizJXhkspYtvWd-155" vertex="1"><mxGeometry y="180" width="120" height="30" as="geometry"/></mxCell><mxCell id="SZJAraMizJXhkspYtvWd-163" value="situacaoTarefa" style="text;strokeColor=#909090;fillColor=none;align=left;verticalAlign=middle;spacingLeft=4;spacingRight=4;overflow=hidden;points=[[0,0.5],[1,0.5]];portConstraint=eastwest;rotatable=0;fontColor=#1A1A1A;rounded=0;labelBackgroundColor=none;" parent="SZJAraMizJXhkspYtvWd-155" vertex="1"><mxGeometry y="210" width="120" height="30" as="geometry"/></mxCell><mxCell id="SZJAraMizJXhkspYtvWd-164" value="app" style="text;strokeColor=#909090;fillColor=none;align=left;verticalAlign=middle;spacingLeft=4;spacingRight=4;overflow=hidden;points=[[0,0.5],[1,0.5]];portConstraint=eastwest;rotatable=0;fontColor=#1A1A1A;rounded=0;labelBackgroundColor=none;" parent="SZJAraMizJXhkspYtvWd-155" vertex="1"><mxGeometry y="240" width="120" height="30" as="geometry"/></mxCell><mxCell id="SZJAraMizJXhkspYtvWd-165" value="engajamento" style="text;strokeColor=#909090;fillColor=none;align=left;verticalAlign=middle;spacingLeft=4;spacingRight=4;overflow=hidden;points=[[0,0.5],[1,0.5]];portConstraint=eastwest;rotatable=0;fontColor=#1A1A1A;rounded=0;labelBackgroundColor=none;" parent="SZJAraMizJXhkspYtvWd-155" vertex="1"><mxGeometry y="270" width="120" height="30" as="geometry"/></mxCell><mxCell id="SZJAraMizJXhkspYtvWd-168" style="edgeStyle=orthogonalEdgeStyle;rounded=0;jumpSize=6;orthogonalLoop=1;jettySize=auto;html=1;fontFamily=Helvetica;fontSize=12;fontColor=#1A1A1A;endArrow=none;endFill=0;labelBackgroundColor=none;strokeColor=#182E3E;" parent="1" source="SZJAraMizJXhkspYtvWd-154" target="SZJAraMizJXhkspYtvWd-155" edge="1"><mxGeometry relative="1" as="geometry"><Array as="points"><mxPoint x="-20" y="1705"/><mxPoint x="-20" y="1928"/></Array></mxGeometry></mxCell><mxCell id="SZJAraMizJXhkspYtvWd-191" value="ControleConnections" style="swimlane;fontStyle=1;childLayout=stackLayout;horizontal=1;startSize=30;horizontalStack=0;resizeParent=1;resizeParentMax=0;resizeLast=0;collapsible=1;marginBottom=0;fillColor=#F5AB50;strokeColor=#909090;fontColor=#1A1A1A;rounded=0;fontSize=13;labelBackgroundColor=none;" parent="1" vertex="1"><mxGeometry x="405" y="2140" width="160" height="420" as="geometry"/></mxCell><mxCell id="SZJAraMizJXhkspYtvWd-192" value="ID_Registro" style="text;strokeColor=#909090;fillColor=none;align=left;verticalAlign=middle;spacingLeft=4;spacingRight=4;overflow=hidden;points=[[0,0.5],[1,0.5]];portConstraint=eastwest;rotatable=0;fontColor=#1A1A1A;rounded=0;shadow=0;glass=0;fontStyle=1;labelBackgroundColor=none;" parent="SZJAraMizJXhkspYtvWd-191" vertex="1"><mxGeometry y="30" width="160" height="30" as="geometry"/></mxCell><mxCell id="SZJAraMizJXhkspYtvWd-195" value="data" style="text;strokeColor=#909090;fillColor=none;align=left;verticalAlign=middle;spacingLeft=4;spacingRight=4;overflow=hidden;points=[[0,0.5],[1,0.5]];portConstraint=eastwest;rotatable=0;fontColor=#1A1A1A;rounded=0;labelBackgroundColor=none;" parent="SZJAraMizJXhkspYtvWd-191" vertex="1"><mxGeometry y="60" width="160" height="30" as="geometry"/></mxCell><mxCell id="SZJAraMizJXhkspYtvWd-202" value="situacaoAula" style="text;strokeColor=#909090;fillColor=#F5AB50;align=left;verticalAlign=middle;spacingLeft=4;spacingRight=4;overflow=hidden;points=[[0,0.5],[1,0.5]];portConstraint=eastwest;rotatable=0;rounded=0;labelBackgroundColor=none;fontColor=#1A1A1A;" parent="SZJAraMizJXhkspYtvWd-191" vertex="1"><mxGeometry y="90" width="160" height="30" as="geometry"/></mxCell><mxCell id="SZJAraMizJXhkspYtvWd-200" value="sala" style="text;strokeColor=#909090;fillColor=none;align=left;verticalAlign=middle;spacingLeft=4;spacingRight=4;overflow=hidden;points=[[0,0.5],[1,0.5]];portConstraint=eastwest;rotatable=0;fontColor=#1A1A1A;rounded=0;labelBackgroundColor=none;" parent="SZJAraMizJXhkspYtvWd-191" vertex="1"><mxGeometry y="120" width="160" height="30" as="geometry"/></mxCell><mxCell id="SZJAraMizJXhkspYtvWd-194" value="estagio" style="text;strokeColor=#909090;fillColor=none;align=left;verticalAlign=middle;spacingLeft=4;spacingRight=4;overflow=hidden;points=[[0,0.5],[1,0.5]];portConstraint=eastwest;rotatable=0;fontColor=#1A1A1A;rounded=0;labelBackgroundColor=none;" parent="SZJAraMizJXhkspYtvWd-191" vertex="1"><mxGeometry y="150" width="160" height="30" as="geometry"/></mxCell><mxCell id="SZJAraMizJXhkspYtvWd-198" value="planejamentoLicoes" style="text;strokeColor=#909090;fillColor=none;align=left;verticalAlign=middle;spacingLeft=4;spacingRight=4;overflow=hidden;points=[[0,0.5],[1,0.5]];portConstraint=eastwest;rotatable=0;fontColor=#1A1A1A;rounded=0;labelBackgroundColor=none;" parent="SZJAraMizJXhkspYtvWd-191" vertex="1"><mxGeometry y="180" width="160" height="30" as="geometry"/></mxCell><mxCell id="SZJAraMizJXhkspYtvWd-199" value="licao" style="text;strokeColor=#909090;fillColor=none;align=left;verticalAlign=middle;spacingLeft=4;spacingRight=4;overflow=hidden;points=[[0,0.5],[1,0.5]];portConstraint=eastwest;rotatable=0;fontColor=#1A1A1A;rounded=0;labelBackgroundColor=none;" parent="SZJAraMizJXhkspYtvWd-191" vertex="1"><mxGeometry y="210" width="160" height="30" as="geometry"/></mxCell><mxCell id="SZJAraMizJXhkspYtvWd-201" value="licao_outrasAtividades" style="text;strokeColor=#909090;fillColor=none;align=left;verticalAlign=middle;spacingLeft=4;spacingRight=4;overflow=hidden;points=[[0,0.5],[1,0.5]];portConstraint=eastwest;rotatable=0;fontColor=#1A1A1A;rounded=0;labelBackgroundColor=none;" parent="SZJAraMizJXhkspYtvWd-191" vertex="1"><mxGeometry y="240" width="160" height="30" as="geometry"/></mxCell><mxCell id="SZJAraMizJXhkspYtvWd-197" value="professor_a" style="text;strokeColor=#909090;fillColor=none;align=left;verticalAlign=middle;spacingLeft=4;spacingRight=4;overflow=hidden;points=[[0,0.5],[1,0.5]];portConstraint=eastwest;rotatable=0;fontColor=#1A1A1A;rounded=0;labelBackgroundColor=none;" parent="SZJAraMizJXhkspYtvWd-191" vertex="1"><mxGeometry y="270" width="160" height="30" as="geometry"/></mxCell><mxCell id="SZJAraMizJXhkspYtvWd-196" value="horaInicio" style="text;strokeColor=#909090;fillColor=none;align=left;verticalAlign=middle;spacingLeft=4;spacingRight=4;overflow=hidden;points=[[0,0.5],[1,0.5]];portConstraint=eastwest;rotatable=0;fontColor=#1A1A1A;rounded=0;labelBackgroundColor=none;" parent="SZJAraMizJXhkspYtvWd-191" vertex="1"><mxGeometry y="300" width="160" height="30" as="geometry"/></mxCell><mxCell id="SZJAraMizJXhkspYtvWd-203" value="horaTermino" style="text;strokeColor=#909090;fillColor=none;align=left;verticalAlign=middle;spacingLeft=4;spacingRight=4;overflow=hidden;points=[[0,0.5],[1,0.5]];portConstraint=eastwest;rotatable=0;fontColor=#1A1A1A;rounded=0;labelBackgroundColor=none;" parent="SZJAraMizJXhkspYtvWd-191" vertex="1"><mxGeometry y="330" width="160" height="30" as="geometry"/></mxCell><mxCell id="SZJAraMizJXhkspYtvWd-210" value="aulaTemTarefa" style="text;strokeColor=#909090;fillColor=none;align=left;verticalAlign=middle;spacingLeft=4;spacingRight=4;overflow=hidden;points=[[0,0.5],[1,0.5]];portConstraint=eastwest;rotatable=0;fontColor=#1A1A1A;rounded=0;labelBackgroundColor=none;" parent="SZJAraMizJXhkspYtvWd-191" vertex="1"><mxGeometry y="360" width="160" height="30" as="geometry"/></mxCell><mxCell id="SZJAraMizJXhkspYtvWd-211" value="aluno" style="text;strokeColor=#909090;fillColor=#F5AB50;align=left;verticalAlign=middle;spacingLeft=4;spacingRight=4;overflow=hidden;points=[[0,0.5],[1,0.5]];portConstraint=eastwest;rotatable=0;rounded=0;labelBackgroundColor=none;fontColor=#1A1A1A;" parent="SZJAraMizJXhkspYtvWd-191" vertex="1"><mxGeometry y="390" width="160" height="30" as="geometry"/></mxCell><mxCell id="SZJAraMizJXhkspYtvWd-207" value="&lt;p style=&quot;margin:0px;margin-top:4px;text-align:center;&quot;&gt;&amp;lt;&amp;lt;enumeration&amp;gt;&amp;gt;&lt;br&gt;&lt;b&gt;SituacaoAula&lt;/b&gt;&lt;/p&gt;&lt;hr&gt;&lt;p style=&quot;margin:0px;margin-left:8px;text-align:left;&quot;&gt;OK&lt;br&gt;&lt;/p&gt;&lt;p style=&quot;margin:0px;margin-left:8px;text-align:left;&quot;&gt;CANCELADA&lt;/p&gt;&lt;p style=&quot;margin:0px;margin-left:8px;text-align:left;&quot;&gt;NÃO DADA&lt;/p&gt;&lt;p style=&quot;margin:0px;margin-left:8px;text-align:left;&quot;&gt;REPOSIÇÃO&lt;/p&gt;" style="shape=rect;html=1;overflow=fill;whiteSpace=wrap;rounded=0;fontFamily=Helvetica;fontSize=12;fillColor=#F5AB50;labelBackgroundColor=none;strokeColor=#909090;fontColor=#1A1A1A;" parent="1" vertex="1"><mxGeometry x="685" y="2190" width="120" height="110" as="geometry"/></mxCell><mxCell id="SZJAraMizJXhkspYtvWd-209" style="edgeStyle=orthogonalEdgeStyle;rounded=0;orthogonalLoop=1;jettySize=auto;html=1;strokeColor=#182E3E;fontColor=#1A1A1A;endArrow=none;endFill=0;labelBackgroundColor=none;" parent="1" source="SZJAraMizJXhkspYtvWd-202" target="SZJAraMizJXhkspYtvWd-207" edge="1"><mxGeometry relative="1" as="geometry"/></mxCell><mxCell id="SZJAraMizJXhkspYtvWd-212" value="Aluno" style="swimlane;fontStyle=1;childLayout=stackLayout;horizontal=1;startSize=30;horizontalStack=0;resizeParent=1;resizeParentMax=0;resizeLast=0;collapsible=1;marginBottom=0;fillColor=#F5AB50;strokeColor=#909090;fontColor=#1A1A1A;rounded=0;fontSize=13;labelBackgroundColor=none;" parent="1" vertex="1"><mxGeometry x="130" y="2220" width="120" height="300" as="geometry"/></mxCell><mxCell id="SZJAraMizJXhkspYtvWd-213" value="estagio" style="text;strokeColor=#909090;fillColor=none;align=left;verticalAlign=middle;spacingLeft=4;spacingRight=4;overflow=hidden;points=[[0,0.5],[1,0.5]];portConstraint=eastwest;rotatable=0;fontColor=#1A1A1A;rounded=0;labelBackgroundColor=none;" parent="SZJAraMizJXhkspYtvWd-212" vertex="1"><mxGeometry y="30" width="120" height="30" as="geometry"/></mxCell><mxCell id="SZJAraMizJXhkspYtvWd-214" value="licao" style="text;strokeColor=#909090;fillColor=none;align=left;verticalAlign=middle;spacingLeft=4;spacingRight=4;overflow=hidden;points=[[0,0.5],[1,0.5]];portConstraint=eastwest;rotatable=0;fontColor=#1A1A1A;rounded=0;labelBackgroundColor=none;" parent="SZJAraMizJXhkspYtvWd-212" vertex="1"><mxGeometry y="60" width="120" height="30" as="geometry"/></mxCell><mxCell id="SZJAraMizJXhkspYtvWd-215" value="presenca" style="text;strokeColor=#909090;fillColor=none;align=left;verticalAlign=middle;spacingLeft=4;spacingRight=4;overflow=hidden;points=[[0,0.5],[1,0.5]];portConstraint=eastwest;rotatable=0;fontColor=#1A1A1A;rounded=0;labelBackgroundColor=none;" parent="SZJAraMizJXhkspYtvWd-212" vertex="1"><mxGeometry y="90" width="120" height="30" as="geometry"/></mxCell><mxCell id="SZJAraMizJXhkspYtvWd-216" value="falta" style="text;strokeColor=#909090;fillColor=none;align=left;verticalAlign=middle;spacingLeft=4;spacingRight=4;overflow=hidden;points=[[0,0.5],[1,0.5]];portConstraint=eastwest;rotatable=0;fontColor=#1A1A1A;rounded=0;labelBackgroundColor=none;" parent="SZJAraMizJXhkspYtvWd-212" vertex="1"><mxGeometry y="120" width="120" height="30" as="geometry"/></mxCell><mxCell id="SZJAraMizJXhkspYtvWd-224" value="fezTarefa" style="text;strokeColor=#909090;fillColor=none;align=left;verticalAlign=middle;spacingLeft=4;spacingRight=4;overflow=hidden;points=[[0,0.5],[1,0.5]];portConstraint=eastwest;rotatable=0;fontColor=#1A1A1A;rounded=0;labelBackgroundColor=none;" parent="SZJAraMizJXhkspYtvWd-212" vertex="1"><mxGeometry y="150" width="120" height="30" as="geometry"/></mxCell><mxCell id="SZJAraMizJXhkspYtvWd-222" value="tarefaAtrasada" style="text;strokeColor=#909090;fillColor=none;align=left;verticalAlign=middle;spacingLeft=4;spacingRight=4;overflow=hidden;points=[[0,0.5],[1,0.5]];portConstraint=eastwest;rotatable=0;fontColor=#1A1A1A;rounded=0;labelBackgroundColor=none;" parent="SZJAraMizJXhkspYtvWd-212" vertex="1"><mxGeometry y="180" width="120" height="30" as="geometry"/></mxCell><mxCell id="SZJAraMizJXhkspYtvWd-225" value="conceito" style="text;strokeColor=#909090;fillColor=none;align=left;verticalAlign=middle;spacingLeft=4;spacingRight=4;overflow=hidden;points=[[0,0.5],[1,0.5]];portConstraint=eastwest;rotatable=0;fontColor=#1A1A1A;rounded=0;labelBackgroundColor=none;" parent="SZJAraMizJXhkspYtvWd-212" vertex="1"><mxGeometry y="210" width="120" height="30" as="geometry"/></mxCell><mxCell id="SZJAraMizJXhkspYtvWd-221" value="engajamento" style="text;strokeColor=#909090;fillColor=none;align=left;verticalAlign=middle;spacingLeft=4;spacingRight=4;overflow=hidden;points=[[0,0.5],[1,0.5]];portConstraint=eastwest;rotatable=0;fontColor=#1A1A1A;rounded=0;labelBackgroundColor=none;" parent="SZJAraMizJXhkspYtvWd-212" vertex="1"><mxGeometry y="240" width="120" height="30" as="geometry"/></mxCell><mxCell id="SZJAraMizJXhkspYtvWd-227" value="obsercacoes" style="text;strokeColor=#909090;fillColor=none;align=left;verticalAlign=middle;spacingLeft=4;spacingRight=4;overflow=hidden;points=[[0,0.5],[1,0.5]];portConstraint=eastwest;rotatable=0;fontColor=#1A1A1A;rounded=0;labelBackgroundColor=none;" parent="SZJAraMizJXhkspYtvWd-212" vertex="1"><mxGeometry y="270" width="120" height="30" as="geometry"/></mxCell><mxCell id="SZJAraMizJXhkspYtvWd-226" style="edgeStyle=orthogonalEdgeStyle;rounded=0;orthogonalLoop=1;jettySize=auto;html=1;strokeColor=#182E3E;fontColor=#1A1A1A;endArrow=none;endFill=0;labelBackgroundColor=none;" parent="1" source="SZJAraMizJXhkspYtvWd-211" target="SZJAraMizJXhkspYtvWd-212" edge="1"><mxGeometry relative="1" as="geometry"/></mxCell><mxCell id="SZJAraMizJXhkspYtvWd-170" value="ControleInteractive" style="swimlane;fontStyle=1;childLayout=stackLayout;horizontal=1;startSize=30;horizontalStack=0;resizeParent=1;resizeParentMax=0;resizeLast=0;collapsible=1;marginBottom=0;fillColor=#F5AB50;strokeColor=#909090;fontColor=#1A1A1A;rounded=0;fontSize=13;labelBackgroundColor=none;" parent="1" vertex="1"><mxGeometry x="340" y="1420" width="160" height="450" as="geometry"/></mxCell><mxCell id="SZJAraMizJXhkspYtvWd-171" value="ID_Registro" style="text;strokeColor=#909090;fillColor=none;align=left;verticalAlign=middle;spacingLeft=4;spacingRight=4;overflow=hidden;points=[[0,0.5],[1,0.5]];portConstraint=eastwest;rotatable=0;fontColor=#1A1A1A;rounded=0;shadow=0;glass=0;fontStyle=1;labelBackgroundColor=none;" parent="SZJAraMizJXhkspYtvWd-170" vertex="1"><mxGeometry y="30" width="160" height="30" as="geometry"/></mxCell><mxCell id="SZJAraMizJXhkspYtvWd-172" value="aluno" style="text;strokeColor=#909090;fillColor=none;align=left;verticalAlign=middle;spacingLeft=4;spacingRight=4;overflow=hidden;points=[[0,0.5],[1,0.5]];portConstraint=eastwest;rotatable=0;fontColor=#1A1A1A;rounded=0;labelBackgroundColor=none;" parent="SZJAraMizJXhkspYtvWd-170" vertex="1"><mxGeometry y="60" width="160" height="30" as="geometry"/></mxCell><mxCell id="SZJAraMizJXhkspYtvWd-173" value="contrato" style="text;strokeColor=#909090;fillColor=none;align=left;verticalAlign=middle;spacingLeft=4;spacingRight=4;overflow=hidden;points=[[0,0.5],[1,0.5]];portConstraint=eastwest;rotatable=0;fontColor=#1A1A1A;rounded=0;labelBackgroundColor=none;" parent="SZJAraMizJXhkspYtvWd-170" vertex="1"><mxGeometry y="90" width="160" height="30" as="geometry"/></mxCell><mxCell id="SZJAraMizJXhkspYtvWd-174" value="data" style="text;strokeColor=#909090;fillColor=none;align=left;verticalAlign=middle;spacingLeft=4;spacingRight=4;overflow=hidden;points=[[0,0.5],[1,0.5]];portConstraint=eastwest;rotatable=0;fontColor=#1A1A1A;rounded=0;labelBackgroundColor=none;" parent="SZJAraMizJXhkspYtvWd-170" vertex="1"><mxGeometry y="120" width="160" height="30" as="geometry"/></mxCell><mxCell id="SZJAraMizJXhkspYtvWd-175" value="horario" style="text;strokeColor=#909090;fillColor=none;align=left;verticalAlign=middle;spacingLeft=4;spacingRight=4;overflow=hidden;points=[[0,0.5],[1,0.5]];portConstraint=eastwest;rotatable=0;fontColor=#1A1A1A;rounded=0;labelBackgroundColor=none;" parent="SZJAraMizJXhkspYtvWd-170" vertex="1"><mxGeometry y="150" width="160" height="30" as="geometry"/></mxCell><mxCell id="SZJAraMizJXhkspYtvWd-179" value="professor_a" style="text;strokeColor=#909090;fillColor=none;align=left;verticalAlign=middle;spacingLeft=4;spacingRight=4;overflow=hidden;points=[[0,0.5],[1,0.5]];portConstraint=eastwest;rotatable=0;fontColor=#1A1A1A;rounded=0;labelBackgroundColor=none;" parent="SZJAraMizJXhkspYtvWd-170" vertex="1"><mxGeometry y="180" width="160" height="30" as="geometry"/></mxCell><mxCell id="SZJAraMizJXhkspYtvWd-176" value="planejamentoLicoes" style="text;strokeColor=#909090;fillColor=none;align=left;verticalAlign=middle;spacingLeft=4;spacingRight=4;overflow=hidden;points=[[0,0.5],[1,0.5]];portConstraint=eastwest;rotatable=0;fontColor=#1A1A1A;rounded=0;labelBackgroundColor=none;" parent="SZJAraMizJXhkspYtvWd-170" vertex="1"><mxGeometry y="210" width="160" height="30" as="geometry"/></mxCell><mxCell id="SZJAraMizJXhkspYtvWd-177" value="licao" style="text;strokeColor=#909090;fillColor=none;align=left;verticalAlign=middle;spacingLeft=4;spacingRight=4;overflow=hidden;points=[[0,0.5],[1,0.5]];portConstraint=eastwest;rotatable=0;fontColor=#1A1A1A;rounded=0;labelBackgroundColor=none;" parent="SZJAraMizJXhkspYtvWd-170" vertex="1"><mxGeometry y="240" width="160" height="30" as="geometry"/></mxCell><mxCell id="SZJAraMizJXhkspYtvWd-178" value="sala" style="text;strokeColor=#909090;fillColor=#F5AB50;align=left;verticalAlign=middle;spacingLeft=4;spacingRight=4;overflow=hidden;points=[[0,0.5],[1,0.5]];portConstraint=eastwest;rotatable=0;rounded=0;labelBackgroundColor=none;fontColor=#1A1A1A;" parent="SZJAraMizJXhkspYtvWd-170" vertex="1"><mxGeometry y="270" width="160" height="30" as="geometry"/></mxCell><mxCell id="SZJAraMizJXhkspYtvWd-180" value="conteudo" style="text;strokeColor=#909090;fillColor=none;align=left;verticalAlign=middle;spacingLeft=4;spacingRight=4;overflow=hidden;points=[[0,0.5],[1,0.5]];portConstraint=eastwest;rotatable=0;fontColor=#1A1A1A;rounded=0;labelBackgroundColor=none;" parent="SZJAraMizJXhkspYtvWd-170" vertex="1"><mxGeometry y="300" width="160" height="30" as="geometry"/></mxCell><mxCell id="SZJAraMizJXhkspYtvWd-181" value="situacaoAula" style="text;strokeColor=#909090;fillColor=#F5AB50;align=left;verticalAlign=middle;spacingLeft=4;spacingRight=4;overflow=hidden;points=[[0,0.5],[1,0.5]];portConstraint=eastwest;rotatable=0;rounded=0;labelBackgroundColor=none;fontColor=#1A1A1A;" parent="SZJAraMizJXhkspYtvWd-170" vertex="1"><mxGeometry y="330" width="160" height="30" as="geometry"/></mxCell><mxCell id="SZJAraMizJXhkspYtvWd-188" value="aulaTemTarefa" style="text;strokeColor=#909090;fillColor=none;align=left;verticalAlign=middle;spacingLeft=4;spacingRight=4;overflow=hidden;points=[[0,0.5],[1,0.5]];portConstraint=eastwest;rotatable=0;fontColor=#1A1A1A;rounded=0;labelBackgroundColor=none;" parent="SZJAraMizJXhkspYtvWd-170" vertex="1"><mxGeometry y="360" width="160" height="30" as="geometry"/></mxCell><mxCell id="SZJAraMizJXhkspYtvWd-189" value="fezTarefa" style="text;strokeColor=#909090;fillColor=none;align=left;verticalAlign=middle;spacingLeft=4;spacingRight=4;overflow=hidden;points=[[0,0.5],[1,0.5]];portConstraint=eastwest;rotatable=0;fontColor=#1A1A1A;rounded=0;labelBackgroundColor=none;" parent="SZJAraMizJXhkspYtvWd-170" vertex="1"><mxGeometry y="390" width="160" height="30" as="geometry"/></mxCell><mxCell id="SZJAraMizJXhkspYtvWd-190" value="tarefaAtrasada" style="text;strokeColor=#909090;fillColor=none;align=left;verticalAlign=middle;spacingLeft=4;spacingRight=4;overflow=hidden;points=[[0,0.5],[1,0.5]];portConstraint=eastwest;rotatable=0;fontColor=#1A1A1A;rounded=0;labelBackgroundColor=none;" parent="SZJAraMizJXhkspYtvWd-170" vertex="1"><mxGeometry y="420" width="160" height="30" as="geometry"/></mxCell><mxCell id="SZJAraMizJXhkspYtvWd-186" value="&lt;p style=&quot;margin:0px;margin-top:4px;text-align:center;&quot;&gt;&amp;lt;&amp;lt;enumeration&amp;gt;&amp;gt;&lt;br&gt;&lt;b&gt;SituacaoAula&lt;/b&gt;&lt;/p&gt;&lt;hr&gt;&lt;p style=&quot;margin:0px;margin-left:8px;text-align:left;&quot;&gt;PRESENÇA&lt;br&gt;FALTA&lt;/p&gt;&lt;p style=&quot;margin:0px;margin-left:8px;text-align:left;&quot;&gt;CANCELADA&lt;/p&gt;&lt;p style=&quot;margin:0px;margin-left:8px;text-align:left;&quot;&gt;NÃO DADA&lt;/p&gt;&lt;p style=&quot;margin:0px;margin-left:8px;text-align:left;&quot;&gt;REPOSIÇÃO&lt;/p&gt;" style="shape=rect;html=1;overflow=fill;whiteSpace=wrap;rounded=0;fontFamily=Helvetica;fontSize=12;fillColor=#F5AB50;labelBackgroundColor=none;strokeColor=#909090;fontColor=#1A1A1A;" parent="1" vertex="1"><mxGeometry x="565" y="1850" width="120" height="130" as="geometry"/></mxCell><mxCell id="SZJAraMizJXhkspYtvWd-187" style="edgeStyle=orthogonalEdgeStyle;rounded=0;orthogonalLoop=1;jettySize=auto;html=1;strokeColor=#182E3E;fontColor=#1A1A1A;endArrow=none;endFill=0;labelBackgroundColor=none;" parent="1" source="SZJAraMizJXhkspYtvWd-181" target="SZJAraMizJXhkspYtvWd-186" edge="1"><mxGeometry relative="1" as="geometry"/></mxCell><mxCell id="wGkZs1_F0PNANWOeqvhp-1" value="&lt;p style=&quot;margin:0px;margin-top:4px;text-align:center;&quot;&gt;&amp;lt;&amp;lt;enumeration&amp;gt;&amp;gt;&lt;br&gt;&lt;b&gt;Modalidades&lt;/b&gt;&lt;/p&gt;&lt;hr&gt;&lt;p style=&quot;margin:0px;margin-left:8px;text-align:left;&quot;&gt;CONNECTIONS&lt;/p&gt;&lt;p style=&quot;margin:0px;margin-left:8px;text-align:left;&quot;&gt;CONNECTIONS VIP&lt;/p&gt;&lt;p style=&quot;margin:0px;margin-left:8px;text-align:left;&quot;&gt;INTERACTIVE&lt;/p&gt;&lt;p style=&quot;margin:0px;margin-left:8px;text-align:left;&quot;&gt;INTERACTIVE VIP&lt;/p&gt;" style="shape=rect;html=1;overflow=fill;whiteSpace=wrap;rounded=0;fontFamily=Helvetica;fontSize=12;fillColor=#F5AB50;labelBackgroundColor=none;strokeColor=#909090;fontColor=#1A1A1A;" parent="1" vertex="1"><mxGeometry x="1100" y="1810" width="120" height="110" as="geometry"/></mxCell><mxCell id="wGkZs1_F0PNANWOeqvhp-3" value="Sala" style="swimlane;fontStyle=1;childLayout=stackLayout;horizontal=1;startSize=30;horizontalStack=0;resizeParent=1;resizeParentMax=0;resizeLast=0;collapsible=1;marginBottom=0;fillColor=#F5AB50;strokeColor=#909090;fontColor=#1A1A1A;rounded=0;fontSize=13;labelBackgroundColor=none;" parent="1" vertex="1"><mxGeometry x="805" y="1660" width="120" height="180" as="geometry"/></mxCell><mxCell id="wGkZs1_F0PNANWOeqvhp-4" value="ID_Sala" style="text;strokeColor=#909090;fillColor=none;align=left;verticalAlign=middle;spacingLeft=4;spacingRight=4;overflow=hidden;points=[[0,0.5],[1,0.5]];portConstraint=eastwest;rotatable=0;fontColor=#1A1A1A;rounded=0;labelBackgroundColor=none;fontStyle=1" parent="wGkZs1_F0PNANWOeqvhp-3" vertex="1"><mxGeometry y="30" width="120" height="30" as="geometry"/></mxCell><mxCell id="wGkZs1_F0PNANWOeqvhp-5" value="sigla" style="text;strokeColor=#909090;fillColor=none;align=left;verticalAlign=middle;spacingLeft=4;spacingRight=4;overflow=hidden;points=[[0,0.5],[1,0.5]];portConstraint=eastwest;rotatable=0;fontColor=#1A1A1A;rounded=0;labelBackgroundColor=none;" parent="wGkZs1_F0PNANWOeqvhp-3" vertex="1"><mxGeometry y="60" width="120" height="30" as="geometry"/></mxCell><mxCell id="wGkZs1_F0PNANWOeqvhp-6" value="descricao" style="text;strokeColor=#909090;fillColor=none;align=left;verticalAlign=middle;spacingLeft=4;spacingRight=4;overflow=hidden;points=[[0,0.5],[1,0.5]];portConstraint=eastwest;rotatable=0;fontColor=#1A1A1A;rounded=0;labelBackgroundColor=none;" parent="wGkZs1_F0PNANWOeqvhp-3" vertex="1"><mxGeometry y="90" width="120" height="30" as="geometry"/></mxCell><mxCell id="wGkZs1_F0PNANWOeqvhp-8" value="modalidade" style="text;strokeColor=#909090;fillColor=#F5AB50;align=left;verticalAlign=middle;spacingLeft=4;spacingRight=4;overflow=hidden;points=[[0,0.5],[1,0.5]];portConstraint=eastwest;rotatable=0;rounded=0;labelBackgroundColor=none;fontColor=#1A1A1A;" parent="wGkZs1_F0PNANWOeqvhp-3" vertex="1"><mxGeometry y="120" width="120" height="30" as="geometry"/></mxCell><mxCell id="wGkZs1_F0PNANWOeqvhp-7" value="vagas" style="text;strokeColor=#909090;fillColor=none;align=left;verticalAlign=middle;spacingLeft=4;spacingRight=4;overflow=hidden;points=[[0,0.5],[1,0.5]];portConstraint=eastwest;rotatable=0;fontColor=#1A1A1A;rounded=0;labelBackgroundColor=none;" parent="wGkZs1_F0PNANWOeqvhp-3" vertex="1"><mxGeometry y="150" width="120" height="30" as="geometry"/></mxCell><mxCell id="wGkZs1_F0PNANWOeqvhp-28" style="edgeStyle=orthogonalEdgeStyle;rounded=0;orthogonalLoop=1;jettySize=auto;html=1;endArrow=none;endFill=0;fontColor=#1A1A1A;strokeColor=#182E3E;labelBackgroundColor=none;" parent="1" source="SZJAraMizJXhkspYtvWd-178" target="wGkZs1_F0PNANWOeqvhp-4" edge="1"><mxGeometry relative="1" as="geometry"/></mxCell><mxCell id="hbxDveMCdLmUZHm9-9i--15" style="edgeStyle=orthogonalEdgeStyle;rounded=0;orthogonalLoop=1;jettySize=auto;html=1;fontSize=12;endArrow=none;endFill=0;startSize=8;endSize=8;labelBackgroundColor=none;strokeColor=#182E3E;fontColor=#1A1A1A;" parent="1" source="wGkZs1_F0PNANWOeqvhp-9" target="wGkZs1_F0PNANWOeqvhp-17" edge="1"><mxGeometry relative="1" as="geometry"/></mxCell><mxCell id="wGkZs1_F0PNANWOeqvhp-9" value="SistemaDesempenho" style="swimlane;fontStyle=1;childLayout=stackLayout;horizontal=1;startSize=30;horizontalStack=0;resizeParent=1;resizeParentMax=0;resizeLast=0;collapsible=1;marginBottom=0;fillColor=#F5AB50;strokeColor=#909090;fontColor=#1A1A1A;rounded=0;fontSize=13;labelBackgroundColor=none;" parent="1" vertex="1"><mxGeometry x="1290" y="1642.5" width="160" height="120" as="geometry"/></mxCell><mxCell id="wGkZs1_F0PNANWOeqvhp-10" value="ID_SistemaDesempenho" style="text;strokeColor=#909090;fillColor=none;align=left;verticalAlign=middle;spacingLeft=4;spacingRight=4;overflow=hidden;points=[[0,0.5],[1,0.5]];portConstraint=eastwest;rotatable=0;fontColor=#1A1A1A;rounded=0;labelBackgroundColor=none;fontStyle=1" parent="wGkZs1_F0PNANWOeqvhp-9" vertex="1"><mxGeometry y="30" width="160" height="30" as="geometry"/></mxCell><mxCell id="wGkZs1_F0PNANWOeqvhp-11" value="avaliacoes" style="text;strokeColor=#909090;fillColor=#F5AB50;align=left;verticalAlign=middle;spacingLeft=4;spacingRight=4;overflow=hidden;points=[[0,0.5],[1,0.5]];portConstraint=eastwest;rotatable=0;rounded=0;labelBackgroundColor=none;fontColor=#1A1A1A;" parent="wGkZs1_F0PNANWOeqvhp-9" vertex="1"><mxGeometry y="60" width="160" height="30" as="geometry"/></mxCell><mxCell id="wGkZs1_F0PNANWOeqvhp-12" value="conceitos" style="text;strokeColor=#909090;fillColor=#F5AB50;align=left;verticalAlign=middle;spacingLeft=4;spacingRight=4;overflow=hidden;points=[[0,0.5],[1,0.5]];portConstraint=eastwest;rotatable=0;rounded=0;labelBackgroundColor=none;fontColor=#1A1A1A;" parent="wGkZs1_F0PNANWOeqvhp-9" vertex="1"><mxGeometry y="90" width="160" height="30" as="geometry"/></mxCell><mxCell id="wGkZs1_F0PNANWOeqvhp-15" value="&lt;p style=&quot;margin:0px;margin-top:4px;text-align:center;&quot;&gt;&amp;lt;&amp;lt;enumeration&amp;gt;&amp;gt;&lt;br&gt;&lt;b&gt;avaliacoes&lt;/b&gt;&lt;/p&gt;&lt;hr&gt;&lt;p style=&quot;margin:0px;margin-left:8px;text-align:left;&quot;&gt;FALA&lt;/p&gt;&lt;p style=&quot;margin:0px;margin-left:8px;text-align:left;&quot;&gt;AUDIÇÃO&lt;/p&gt;&lt;p style=&quot;margin:0px;margin-left:8px;text-align:left;&quot;&gt;LEITURA&lt;/p&gt;&lt;p style=&quot;margin:0px;margin-left:8px;text-align:left;&quot;&gt;ESCRITA&lt;/p&gt;&lt;p style=&quot;margin:0px;margin-left:8px;text-align:left;&quot;&gt;TAREFA&lt;/p&gt;" style="shape=rect;html=1;overflow=fill;whiteSpace=wrap;rounded=0;fontFamily=Helvetica;fontSize=12;fillColor=#F5AB50;labelBackgroundColor=none;strokeColor=#909090;fontColor=#1A1A1A;" parent="1" vertex="1"><mxGeometry x="1040" y="1520" width="120" height="130" as="geometry"/></mxCell><mxCell id="wGkZs1_F0PNANWOeqvhp-17" value="Conceitos" style="swimlane;fontStyle=1;childLayout=stackLayout;horizontal=1;startSize=30;horizontalStack=0;resizeParent=1;resizeParentMax=0;resizeLast=0;collapsible=1;marginBottom=0;fillColor=#F5AB50;strokeColor=#909090;fontColor=#1A1A1A;rounded=0;fontSize=13;labelBackgroundColor=none;" parent="1" vertex="1"><mxGeometry x="1610" y="1627.5" width="170" height="150" as="geometry"/></mxCell><mxCell id="wGkZs1_F0PNANWOeqvhp-19" value="descricao" style="text;strokeColor=#909090;fillColor=#F5AB50;align=left;verticalAlign=middle;spacingLeft=4;spacingRight=4;overflow=hidden;points=[[0,0.5],[1,0.5]];portConstraint=eastwest;rotatable=0;rounded=0;labelBackgroundColor=none;fontColor=#1A1A1A;" parent="wGkZs1_F0PNANWOeqvhp-17" vertex="1"><mxGeometry y="30" width="170" height="30" as="geometry"/></mxCell><mxCell id="wGkZs1_F0PNANWOeqvhp-22" value="valorMinimo" style="text;strokeColor=#909090;fillColor=none;align=left;verticalAlign=middle;spacingLeft=4;spacingRight=4;overflow=hidden;points=[[0,0.5],[1,0.5]];portConstraint=eastwest;rotatable=0;fontColor=#1A1A1A;rounded=0;labelBackgroundColor=none;" parent="wGkZs1_F0PNANWOeqvhp-17" vertex="1"><mxGeometry y="60" width="170" height="30" as="geometry"/></mxCell><mxCell id="wGkZs1_F0PNANWOeqvhp-20" value="valorMaximo" style="text;strokeColor=#909090;fillColor=none;align=left;verticalAlign=middle;spacingLeft=4;spacingRight=4;overflow=hidden;points=[[0,0.5],[1,0.5]];portConstraint=eastwest;rotatable=0;fontColor=#1A1A1A;rounded=0;labelBackgroundColor=none;" parent="wGkZs1_F0PNANWOeqvhp-17" vertex="1"><mxGeometry y="90" width="170" height="30" as="geometry"/></mxCell><mxCell id="wGkZs1_F0PNANWOeqvhp-21" value="aprovado" style="text;strokeColor=#909090;fillColor=none;align=left;verticalAlign=middle;spacingLeft=4;spacingRight=4;overflow=hidden;points=[[0,0.5],[1,0.5]];portConstraint=eastwest;rotatable=0;fontColor=#1A1A1A;rounded=0;labelBackgroundColor=none;" parent="wGkZs1_F0PNANWOeqvhp-17" vertex="1"><mxGeometry y="120" width="170" height="30" as="geometry"/></mxCell><mxCell id="wGkZs1_F0PNANWOeqvhp-23" value="&lt;p style=&quot;margin:0px;margin-top:4px;text-align:center;&quot;&gt;&amp;lt;&amp;lt;enumeration&amp;gt;&amp;gt;&lt;br&gt;&lt;b&gt;descricao&lt;/b&gt;&lt;/p&gt;&lt;hr&gt;&lt;p style=&quot;margin:0px;margin-left:8px;text-align:left;&quot;&gt;ÓTIMO&lt;/p&gt;&lt;p style=&quot;margin:0px;margin-left:8px;text-align:left;&quot;&gt;MUITO BOM&lt;/p&gt;&lt;p style=&quot;margin:0px;margin-left:8px;text-align:left;&quot;&gt;BOM&lt;/p&gt;&lt;p style=&quot;margin:0px;margin-left:8px;text-align:left;&quot;&gt;REGULAR&lt;/p&gt;" style="shape=rect;html=1;overflow=fill;whiteSpace=wrap;rounded=0;fontFamily=Helvetica;fontSize=12;fillColor=#F5AB50;labelBackgroundColor=none;strokeColor=#909090;fontColor=#1A1A1A;" parent="1" vertex="1"><mxGeometry x="1940" y="1612.5" width="120" height="120" as="geometry"/></mxCell><mxCell id="wGkZs1_F0PNANWOeqvhp-24" style="edgeStyle=orthogonalEdgeStyle;rounded=0;orthogonalLoop=1;jettySize=auto;html=1;endArrow=none;endFill=0;fontColor=#1A1A1A;strokeColor=#182E3E;labelBackgroundColor=none;" parent="1" source="wGkZs1_F0PNANWOeqvhp-11" target="wGkZs1_F0PNANWOeqvhp-15" edge="1"><mxGeometry relative="1" as="geometry"/></mxCell><mxCell id="wGkZs1_F0PNANWOeqvhp-27" style="edgeStyle=orthogonalEdgeStyle;rounded=0;orthogonalLoop=1;jettySize=auto;html=1;endArrow=none;endFill=0;fontColor=#1A1A1A;strokeColor=#182E3E;labelBackgroundColor=none;" parent="1" source="wGkZs1_F0PNANWOeqvhp-19" target="wGkZs1_F0PNANWOeqvhp-23" edge="1"><mxGeometry relative="1" as="geometry"/></mxCell><mxCell id="4TfyeLQULbwjOQ5E9iak-7" style="edgeStyle=none;rounded=0;orthogonalLoop=1;jettySize=auto;html=1;exitX=0;exitY=0.5;exitDx=0;exitDy=0;entryX=1;entryY=0.5;entryDx=0;entryDy=0;endArrow=none;endFill=0;strokeColor=#182E3E;labelBackgroundColor=none;fontColor=#1A1A1A;" parent="1" source="SZJAraMizJXhkspYtvWd-177" target="SZJAraMizJXhkspYtvWd-152" edge="1"><mxGeometry relative="1" as="geometry"/></mxCell><mxCell id="4TfyeLQULbwjOQ5E9iak-8" style="edgeStyle=none;rounded=0;orthogonalLoop=1;jettySize=auto;html=1;exitX=0;exitY=0.5;exitDx=0;exitDy=0;entryX=1;entryY=0.5;entryDx=0;entryDy=0;endArrow=none;endFill=0;strokeColor=#182E3E;labelBackgroundColor=none;fontColor=#1A1A1A;" parent="1" source="SZJAraMizJXhkspYtvWd-180" target="SZJAraMizJXhkspYtvWd-153" edge="1"><mxGeometry relative="1" as="geometry"/></mxCell><mxCell id="4TfyeLQULbwjOQ5E9iak-9" style="edgeStyle=none;rounded=0;orthogonalLoop=1;jettySize=auto;html=1;exitX=0;exitY=0.5;exitDx=0;exitDy=0;entryX=1;entryY=0.5;entryDx=0;entryDy=0;endArrow=none;endFill=0;strokeColor=#182E3E;labelBackgroundColor=none;fontColor=#1A1A1A;" parent="1" source="SZJAraMizJXhkspYtvWd-181" target="SZJAraMizJXhkspYtvWd-126" edge="1"><mxGeometry relative="1" as="geometry"/></mxCell><mxCell id="4TfyeLQULbwjOQ5E9iak-10" style="edgeStyle=none;rounded=0;orthogonalLoop=1;jettySize=auto;html=1;exitX=0;exitY=0.5;exitDx=0;exitDy=0;entryX=1;entryY=0.5;entryDx=0;entryDy=0;endArrow=none;endFill=0;strokeColor=#182E3E;labelBackgroundColor=none;fontColor=#1A1A1A;" parent="1" source="SZJAraMizJXhkspYtvWd-188" target="SZJAraMizJXhkspYtvWd-163" edge="1"><mxGeometry relative="1" as="geometry"/></mxCell><mxCell id="4TfyeLQULbwjOQ5E9iak-11" style="edgeStyle=none;rounded=0;orthogonalLoop=1;jettySize=auto;html=1;exitX=0;exitY=0.5;exitDx=0;exitDy=0;entryX=1;entryY=0.5;entryDx=0;entryDy=0;endArrow=none;endFill=0;strokeColor=#182E3E;labelBackgroundColor=none;fontColor=#1A1A1A;" parent="1" source="SZJAraMizJXhkspYtvWd-189" target="SZJAraMizJXhkspYtvWd-163" edge="1"><mxGeometry relative="1" as="geometry"/></mxCell><mxCell id="4TfyeLQULbwjOQ5E9iak-12" style="edgeStyle=none;rounded=0;orthogonalLoop=1;jettySize=auto;html=1;exitX=0;exitY=0.5;exitDx=0;exitDy=0;entryX=1;entryY=0.5;entryDx=0;entryDy=0;endArrow=none;endFill=0;strokeColor=#182E3E;labelBackgroundColor=none;fontColor=#1A1A1A;" parent="1" source="SZJAraMizJXhkspYtvWd-190" target="SZJAraMizJXhkspYtvWd-163" edge="1"><mxGeometry relative="1" as="geometry"/></mxCell><mxCell id="4TfyeLQULbwjOQ5E9iak-13" style="edgeStyle=none;rounded=0;orthogonalLoop=1;jettySize=auto;html=1;exitX=0;exitY=0.5;exitDx=0;exitDy=0;entryX=1;entryY=0.5;entryDx=0;entryDy=0;endArrow=none;endFill=0;strokeColor=#182E3E;labelBackgroundColor=none;fontColor=#1A1A1A;" parent="1" source="SZJAraMizJXhkspYtvWd-179" target="SZJAraMizJXhkspYtvWd-169" edge="1"><mxGeometry relative="1" as="geometry"/></mxCell><mxCell id="4TfyeLQULbwjOQ5E9iak-14" style="edgeStyle=none;rounded=0;orthogonalLoop=1;jettySize=auto;html=1;exitX=0;exitY=0.5;exitDx=0;exitDy=0;entryX=1;entryY=0.5;entryDx=0;entryDy=0;endArrow=none;endFill=0;strokeColor=#182E3E;labelBackgroundColor=none;fontColor=#1A1A1A;" parent="1" source="SZJAraMizJXhkspYtvWd-175" target="SZJAraMizJXhkspYtvWd-127" edge="1"><mxGeometry relative="1" as="geometry"/></mxCell><mxCell id="4TfyeLQULbwjOQ5E9iak-16" style="edgeStyle=none;rounded=0;orthogonalLoop=1;jettySize=auto;html=1;exitX=0;exitY=0.5;exitDx=0;exitDy=0;entryX=1;entryY=0.5;entryDx=0;entryDy=0;endArrow=none;endFill=0;strokeColor=#182E3E;labelBackgroundColor=none;fontColor=#1A1A1A;" parent="1" source="SZJAraMizJXhkspYtvWd-174" target="SZJAraMizJXhkspYtvWd-124" edge="1"><mxGeometry relative="1" as="geometry"/></mxCell><mxCell id="hbxDveMCdLmUZHm9-9i--14" style="edgeStyle=orthogonalEdgeStyle;rounded=0;orthogonalLoop=1;jettySize=auto;html=1;exitX=1;exitY=0.5;exitDx=0;exitDy=0;fontSize=12;endArrow=none;endFill=0;startSize=8;endSize=8;labelBackgroundColor=none;strokeColor=#182E3E;fontColor=#1A1A1A;" parent="1" source="SZJAraMizJXhkspYtvWd-73" target="K7bReG7VReP9OpcojC8x-13" edge="1"><mxGeometry relative="1" as="geometry"/></mxCell><mxCell id="hbxDveMCdLmUZHm9-9i--16" style="edgeStyle=orthogonalEdgeStyle;rounded=0;orthogonalLoop=1;jettySize=auto;html=1;exitX=1;exitY=0.5;exitDx=0;exitDy=0;fontSize=12;endArrow=none;endFill=0;startSize=8;endSize=8;labelBackgroundColor=none;strokeColor=#182E3E;fontColor=#1A1A1A;" parent="1" source="wGkZs1_F0PNANWOeqvhp-8" target="wGkZs1_F0PNANWOeqvhp-1" edge="1"><mxGeometry relative="1" as="geometry"/></mxCell></root></mxGraphModel></diagram></mxfile>